<svg xmlns="http://www.w3.org/2000/svg" width="114" height="93.307" viewBox="0 0 114 93.307">
  <g id="Grupo_1064197" data-name="Grupo 1064197" transform="translate(-207 -433)">
    <rect id="Rectángulo_34817" data-name="Rectángulo 34817" width="114" height="76" rx="6" transform="translate(207 442)" fill="#78a3dc"/>
    <g id="dia-de-la-madre" transform="translate(215.066 433)">
      <g id="Grupo_1043434" data-name="Grupo 1043434" transform="translate(0.358 7.068)">
        <g id="Grupo_1043433" data-name="Grupo 1043433">
          <path id="Trazado_773011" data-name="Trazado 773011" d="M50.565,130.911c-5.446-3.344-70.168-44.037-41.053-76.2C30.075,32,50.565,56.6,50.565,56.6h0S71.051,32,91.614,54.716c29.114,32.159-35.608,72.851-41.053,76.2" transform="translate(-2.017 -45.086)" fill="#ff85ab"/>
        </g>
      </g>
      <g id="Grupo_1043436" data-name="Grupo 1043436" transform="translate(48.233 7.068)">
        <g id="Grupo_1043435" data-name="Grupo 1043435">
          <path id="Trazado_773012" data-name="Trazado 773012" d="M42.076,54.718c-6.23-6.881-12.453-9.419-18.1-9.616,6.025-.211,12.785,2.14,19.554,9.616C72.639,86.873,7.937,127.559,2.477,130.912c-.179-.11-.424-.262-.726-.451,8.886-5.567,68.479-44.645,40.325-75.743Z" transform="translate(-1.751 -45.089)" fill="#fff"/>
        </g>
      </g>
      <g id="Grupo_1043438" data-name="Grupo 1043438" transform="translate(0.413 7.068)">
        <g id="Grupo_1043437" data-name="Grupo 1043437">
          <path id="Trazado_773013" data-name="Trazado 773013" d="M235.87,54.717c7.081-7.822,14.154-10.033,20.385-9.571-5.426.408-11.346,3.024-17.273,9.571-27.393,30.257,28.28,68.068,39.5,75.219-.7.448-1.234.778-1.556.976C271.461,127.558,206.759,86.872,235.87,54.717Z" transform="translate(-228.375 -45.088)" fill="#f75aa1"/>
        </g>
      </g>
      <g id="Grupo_1043451" data-name="Grupo 1043451" transform="translate(75.707 20.652)">
        <g id="Grupo_1043440" data-name="Grupo 1043440" transform="translate(5.302 7.074)">
          <g id="Grupo_1043439" data-name="Grupo 1043439">
            <path id="Trazado_773014" data-name="Trazado 773014" d="M34.7,145.753c1.985-1.143,8.024-1.037,8.024-1.037s-2.928,5.272-4.912,6.415-3.931.659-4.79-.826S32.718,146.9,34.7,145.753Z" transform="translate(-32.633 -144.713)" fill="#61ffb0"/>
          </g>
        </g>
        <g id="Grupo_1043442" data-name="Grupo 1043442" transform="translate(5.66 7.074)">
          <g id="Grupo_1043441" data-name="Grupo 1043441">
            <path id="Trazado_773015" data-name="Trazado 773015" d="M37.627,150.51c1.564-.9,3.713-4.365,4.553-5.793.6-.008.981,0,.981,0s-2.928,5.272-4.912,6.415c-1.86,1.072-3.686.713-4.616-.558A3.608,3.608,0,0,0,37.627,150.51Z" transform="translate(-33.634 -144.714)" fill="#fff"/>
          </g>
        </g>
        <g id="Grupo_1043444" data-name="Grupo 1043444" transform="translate(0)">
          <g id="Grupo_1043443" data-name="Grupo 1043443">
            <path id="Trazado_773016" data-name="Trazado 773016" d="M76.866,118.051c0-2.286,3.112-7.452,3.112-7.452s3.112,5.166,3.112,7.452-1.393,3.726-3.112,3.726S76.866,120.338,76.866,118.051Z" transform="translate(-76.866 -110.599)" fill="#61ffb0"/>
          </g>
        </g>
        <g id="Grupo_1043446" data-name="Grupo 1043446" transform="translate(0.21 0.008)">
          <g id="Grupo_1043445" data-name="Grupo 1043445">
            <path id="Trazado_773017" data-name="Trazado 773017" d="M89.349,118.319c0-1.8,1.932-5.39,2.751-6.831-.293-.523-.489-.848-.489-.848s-3.112,5.166-3.112,7.452c0,2.143,1.224,3.542,2.793,3.709A3.592,3.592,0,0,1,89.349,118.319Z" transform="translate(-88.499 -110.64)" fill="#fff"/>
          </g>
        </g>
        <g id="Grupo_1043448" data-name="Grupo 1043448" transform="translate(2.799 2.487)">
          <g id="Grupo_1043447" data-name="Grupo 1043447">
            <path id="Trazado_773018" data-name="Trazado 773018" d="M59.941,127.492c1.146-1.98,6.429-4.9,6.429-4.9s.107,6.026-1.039,8.006-3.074,2.532-4.562,1.674S58.8,129.472,59.941,127.492Z" transform="translate(-59.307 -122.591)" fill="#61ffb0"/>
          </g>
        </g>
        <g id="Grupo_1043450" data-name="Grupo 1043450" transform="translate(2.799 2.487)">
          <g id="Grupo_1043449" data-name="Grupo 1043449">
            <path id="Trazado_773019" data-name="Trazado 773019" d="M59.942,127.493c1.146-1.98,6.429-4.9,6.429-4.9s.015.836-.026,1.986c-1.639,1-4.373,2.8-5.159,4.157a3.733,3.733,0,0,0-.3,3.6c-.039-.02-.079-.037-.117-.059C59.281,131.415,58.8,129.473,59.942,127.493Z" transform="translate(-59.307 -122.592)" fill="#30e693"/>
          </g>
        </g>
      </g>
      <g id="Grupo_1043483" data-name="Grupo 1043483" transform="translate(21.332 11.416)">
        <g id="Grupo_1043452" data-name="Grupo 1043452" transform="translate(0 15.613)">
          <path id="Trazado_773020" data-name="Trazado 773020" d="M196.894,146.439v9.76a2.9,2.9,0,0,0,.91,2.107l4.692,4.421s8.811,15.3,8.608,20.684,0,11.384,0,11.384H180.952S170.51,182.75,169.8,169.537s14.669-28.18,14.669-28.18Z" transform="translate(-169.773 -141.357)" fill="#ffdcd2"/>
        </g>
        <g id="Grupo_1043454" data-name="Grupo 1043454" transform="translate(0.594 34.622)">
          <g id="Grupo_1043453" data-name="Grupo 1043453">
            <path id="Trazado_773021" data-name="Trazado 773021" d="M138.632,233.223c-4.38,4.06-9.694,7.989-7.85,15.228.862,3.384.007,5.919,2.552,14.025a216.141,216.141,0,0,0,24.108,17.411,176.732,176.732,0,0,0,18.279-13.069l.618-8.661,2.971-15.246-2.971-2.994s-2.3,17.053-19.106,2.708a90.961,90.961,0,0,0-8.334-5.752c-4.819-2.833-9.446-4.412-10.267-3.651Z" transform="translate(-130.406 -233.033)" fill="#d483ff"/>
          </g>
        </g>
        <g id="Grupo_1043456" data-name="Grupo 1043456" transform="translate(0.594 34.622)">
          <g id="Grupo_1043455" data-name="Grupo 1043455">
            <path id="Trazado_773022" data-name="Trazado 773022" d="M236.083,233.224c.364-.337,1.477-.214,3.022.273-4.319,3.964-9.356,7.878-7.552,14.954q.046.181.086.36a39.58,39.58,0,0,0,15.67,23.831c3.9,2.75,7.256,4.939,9.246,6.206-.754.48-1.321.831-1.661,1.04a216.119,216.119,0,0,1-24.108-17.411c-2.546-8.106-1.69-10.642-2.552-14.025C226.388,241.213,231.7,237.284,236.083,233.224Z" transform="translate(-227.857 -233.034)" fill="#c35fff"/>
          </g>
        </g>
        <g id="Grupo_1043458" data-name="Grupo 1043458" transform="translate(37.265 33.726)">
          <g id="Grupo_1043457" data-name="Grupo 1043457">
            <path id="Trazado_773023" data-name="Trazado 773023" d="M88.331,248.946l-.072-2.9-3.179-4.57s2.071-6.738,6.188-8.433l4.839-4.327s8.52,14.6,10.6,22.834a136.321,136.321,0,0,1-11.357,10.507,8.088,8.088,0,0,1-1.42.155S88.688,258.373,88.331,248.946Z" transform="translate(-85.08 -228.715)" fill="#ffdcd2"/>
          </g>
        </g>
        <g id="Grupo_1043460" data-name="Grupo 1043460" transform="translate(46.626 33.726)">
          <g id="Grupo_1043459" data-name="Grupo 1043459" transform="translate(0)">
            <path id="Trazado_773024" data-name="Trazado 773024" d="M86.746,228.715s8.52,14.6,10.6,22.834c-.54.565-1.084,1.119-1.629,1.666-2.007-6.923-8.363-18.844-10.641-23.009Z" transform="translate(-85.08 -228.715)" fill="#ffc8cc"/>
          </g>
        </g>
        <g id="Grupo_1043462" data-name="Grupo 1043462" transform="translate(29.341 20.231)">
          <g id="Grupo_1043461" data-name="Grupo 1043461">
            <path id="Trazado_773025" data-name="Trazado 773025" d="M146.862,181.493c4.73-4.52,4.27-11.391,4.27-11.391.164-2.534-3.932-5.978-9.148-6.433a9.724,9.724,0,0,0-8.872,4.042,6.933,6.933,0,0,0-.853,6.829s-4.805,7.8,5.5,10.021C141.36,185.337,144.639,183.616,146.862,181.493Z" transform="translate(-131.14 -163.631)" fill="#ffdcd2"/>
          </g>
        </g>
        <g id="Grupo_1043464" data-name="Grupo 1043464" transform="translate(29.341 20.231)">
          <g id="Grupo_1043463" data-name="Grupo 1043463">
            <path id="Trazado_773026" data-name="Trazado 773026" d="M175.744,174.54a6.932,6.932,0,0,1,.853-6.829,9.724,9.724,0,0,1,8.872-4.042l.144.015a9.6,9.6,0,0,0-6.941,4.026,6.933,6.933,0,0,0-.853,6.829s-4.805,7.8,5.5,10.021c.248.053.5.094.74.125a8.423,8.423,0,0,1-2.815-.125C170.939,182.339,175.744,174.54,175.744,174.54Z" transform="translate(-174.625 -163.631)" fill="#ffc8cc"/>
          </g>
        </g>
        <g id="Grupo_1043465" data-name="Grupo 1043465" transform="translate(44.279 32.949)">
          <path id="Trazado_773027" data-name="Trazado 773027" d="M133.83,229.332s2.855,2.913,4.321-1.47a3.328,3.328,0,0,0,.126-1.726c-.193-.931-.867-1.89-3.087-.386" transform="translate(-133.83 -224.966)" fill="#ffdcd2"/>
        </g>
        <path id="Trazado_773028" data-name="Trazado 773028" d="M193.889,66.059s7.385,16.4-5.929,27.675a6.928,6.928,0,0,1-9.45-.393q-.108-.112-.216-.23a55.785,55.785,0,0,1-7.028-10.029l-3.827-9.99Z" transform="translate(-154.113 -66.059)" fill="#ffdcd2"/>
        <g id="Grupo_1043467" data-name="Grupo 1043467" transform="translate(25.243)">
          <g id="Grupo_1043466" data-name="Grupo 1043466" transform="translate(0)">
            <path id="Trazado_773029" data-name="Trazado 773029" d="M173.968,92.7c10.942-9.265,7.9-21.992,6.474-26.233l1.53-.407s7.385,16.4-5.929,27.675a6.96,6.96,0,0,1-8.6.347A7.02,7.02,0,0,0,173.968,92.7Z" transform="translate(-167.439 -66.059)" fill="#ffc8cc"/>
          </g>
        </g>
        <g id="Grupo_1043472" data-name="Grupo 1043472" transform="translate(28.438 38.021)">
          <g id="Grupo_1043469" data-name="Grupo 1043469" transform="translate(0)">
            <g id="Grupo_1043468" data-name="Grupo 1043468">
              <path id="Trazado_773030" data-name="Trazado 773030" d="M164.38,254.693s-2.19,19.16-12.326,7.42a16.968,16.968,0,0,1-3.158-6.607l-1.487-1.258a1.966,1.966,0,0,1-.626-2.072,3.664,3.664,0,0,1,3.291-2.736A1.981,1.981,0,0,1,152,250.454l1.431,2.562A24.231,24.231,0,0,1,157.7,258" transform="translate(-146.699 -249.429)" fill="#ffdcd2"/>
            </g>
          </g>
          <g id="Grupo_1043471" data-name="Grupo 1043471" transform="translate(0 0.666)">
            <g id="Grupo_1043470" data-name="Grupo 1043470">
              <path id="Trazado_773031" data-name="Trazado 773031" d="M162.774,254.72a3.893,3.893,0,0,1,1.439-2.081,4.392,4.392,0,0,0-.609,1.253,1.966,1.966,0,0,0,.626,2.072l1.487,1.258a16.968,16.968,0,0,0,3.158,6.607c3.685,4.268,6.319,4.45,8.181,2.955-1.88,2.28-4.74,2.819-9.01-2.127a16.968,16.968,0,0,1-3.158-6.607l-1.487-1.258A1.967,1.967,0,0,1,162.774,254.72Z" transform="translate(-162.69 -252.639)" fill="#fff"/>
            </g>
          </g>
        </g>
        <g id="Grupo_1043474" data-name="Grupo 1043474" transform="translate(13.326 26.924)">
          <g id="Grupo_1043473" data-name="Grupo 1043473">
            <path id="Trazado_773032" data-name="Trazado 773032" d="M92.791,217.59a7.592,7.592,0,0,0-.474,11.224c21.07,20.82,33.6,23.941,37.884,6.478.974-3.975,2.942-15.036,3.584-20.077a20.718,20.718,0,0,1,.588-2.814c1.284-4.723-3.281-7.858-3.281-7.858-2.407-1.705-3.842-5.134-4.614-7.653a1.4,1.4,0,0,0-2.705.145c-1.028,5.323,4.7,12.969,4.7,12.969-.136,4.377-9.467,20.818-9.467,20.818s-8.39-7.121-16.7-13.452A7.634,7.634,0,0,0,92.791,217.59Z" transform="translate(-90.065 -195.907)" fill="#ffdcd2"/>
          </g>
        </g>
        <g id="Grupo_1043476" data-name="Grupo 1043476" transform="translate(13.327 48.126)">
          <g id="Grupo_1043475" data-name="Grupo 1043475">
            <path id="Trazado_773033" data-name="Trazado 773033" d="M129.928,298.643a7.736,7.736,0,0,1,.643-.481,7.59,7.59,0,0,0,.958,9.635c15.3,15.122,26.1,20.9,32.508,16.246-6.006,7.96-17.483,2.721-34.583-14.176a7.592,7.592,0,0,1,.474-11.224Z" transform="translate(-127.202 -298.162)" fill="#ffc8cc"/>
          </g>
        </g>
        <g id="Grupo_1043478" data-name="Grupo 1043478" transform="translate(13.327 46.829)">
          <g id="Grupo_1043477" data-name="Grupo 1043477">
            <path id="Trazado_773034" data-name="Trazado 773034" d="M210.109,293.685a7.638,7.638,0,0,1,9.529-.214c2.744,2.092,5.5,4.27,7.954,6.248l-9.476,13q-3.982-3.358-8.481-7.807a7.592,7.592,0,0,1,.474-11.224Z" transform="translate(-207.383 -291.907)" fill="#d483ff"/>
          </g>
        </g>
        <g id="Grupo_1043480" data-name="Grupo 1043480" transform="translate(13.328 52.889)">
          <g id="Grupo_1043479" data-name="Grupo 1043479">
            <path id="Trazado_773035" data-name="Trazado 773035" d="M209.633,324.972l.09.089a9.878,9.878,0,0,0,14.908-1.22l1.531-2.1c.485.387.963.771,1.429,1.146l-9.476,13q-3.982-3.358-8.481-7.807a7.566,7.566,0,0,1-2.092-6.941A7.53,7.53,0,0,0,209.633,324.972Z" transform="translate(-207.382 -321.135)" fill="#c35fff"/>
          </g>
        </g>
        <g id="Grupo_1043482" data-name="Grupo 1043482" transform="translate(13.328 46.829)">
          <g id="Grupo_1043481" data-name="Grupo 1043481">
            <path id="Trazado_773036" data-name="Trazado 773036" d="M210.108,295.135a7.573,7.573,0,0,0-2.691,5.1,7.622,7.622,0,0,1,12.22-6.765c2.744,2.092,5.5,4.27,7.954,6.248l-.666.914c-2.284-1.833-4.788-3.807-7.288-5.713A7.638,7.638,0,0,0,210.108,295.135Z" transform="translate(-207.383 -291.908)" fill="#fff"/>
          </g>
        </g>
      </g>
      <path id="Trazado_773037" data-name="Trazado 773037" d="M7.6,27.42c5.526-6.1,13.031-10.586,21.531-9.629,3.123-3.22,7.7-6.5,12.378-6.735,7.7-.44,15.892,1.69,20.136,8.686a24.288,24.288,0,0,1,9.107-2.083C86.679,17.342,99.8,34.7,97.633,49.793c-1.913,13.326-11.86,24.7-21.306,33.644-.429,2.229-.829,4.16-1.13,5.389-1.594,6.505-4.284,10.207-8.223,11.317-3.155.889-6.587-.111-9.464-1.422-3.8,2.684-6.789,4.579-8.331,5.526a.416.416,0,0,1-.435,0A219.666,219.666,0,0,1,25,87.148c-2.778,5.642-7.529,4.646-12.012,1.5C9.056,85.888,7.163,78.991,9.77,70.328,4.921,63.831,1.3,56.848.285,49.793-.89,41.606,1.571,34.079,7.6,27.42ZM35.4,53.638a2.4,2.4,0,0,1-2.263-.846c-.164.631-.24,1.97.637,4.468C40.906,59.7,46.235,64.68,52.3,68.852c-.241-.631-.477-1.33-.7-2.1l-1.39-1.176c-1.678-1.419-.564-3.922,1.007-4.909a6.022,6.022,0,0,1-.885-4.2c-1.508-1.219-2.571-2.723-2.3-4.764a7.613,7.613,0,0,1-2.83-1.951A52.927,52.927,0,0,1,39.4,41.839c-.7,7.41-2.013,11.278-4,11.8Zm9.92,35.812h0L54.3,77.133c-2.383-1.916-5.023-4-7.645-6a7.171,7.171,0,0,0-6.778-1.067c.814,3.83-1.1,7.02-4.57,8.589a7.176,7.176,0,0,0,1.9,3.3q4.321,4.269,8.114,7.5Zm-7.66-24.525a17.753,17.753,0,0,1,2.019,4.333,8,8,0,0,1,7.483,1.217C53.466,75.282,59.884,80.6,62.567,82.843a22.4,22.4,0,0,1-1.081-5.531c-2.689.328-5.08-2.072-6.667-3.909a13,13,0,0,1-1.949-3.186c-6.359-3.984-11.506-9.234-18.715-11.938a44.77,44.77,0,0,0,3.5,6.647Zm29.081-9.117a5.274,5.274,0,0,1,1.575-.778,10.287,10.287,0,0,1-.354-4.639A1.845,1.845,0,0,1,70.251,49c.039-2.332-3.933-5.475-8.771-5.9-.077-.007-.153-.008-.229-.012-.159.321-.324.642-.5.962a5.694,5.694,0,0,0,2.937,2.384.415.415,0,0,1-.238.794,6.455,6.455,0,0,1-3.174-2.373c-1.831,2.966-4.795,6.649-8.485,7.229a7.2,7.2,0,0,0,.389,1.32.413.413,0,0,1-.032.371c-1.157,1.879-1.539,4.659-.172,6.521a2.693,2.693,0,0,1,3.459.966l.926,1.658a9.863,9.863,0,0,0,9.484-2.461,4.1,4.1,0,0,1-.528-.436.415.415,0,0,1,.594-.579c1.548,1.576,3,.514,3.6-1.228a22.813,22.813,0,0,1-.952-2.389,4.383,4.383,0,0,0-1.353.667.415.415,0,1,1-.467-.686Zm1.352,5.235A2.369,2.369,0,0,1,66.6,60.88a12.2,12.2,0,0,1-5.034,2.941A18.962,18.962,0,0,0,59.8,66.957c.421.538.864,1.143,1.316,1.816a.415.415,0,0,1-.69.461,24.137,24.137,0,0,0-4.192-4.888.42.42,0,0,1-.1-.12l-1.431-2.562a1.56,1.56,0,0,0-1.519-.8,3.269,3.269,0,0,0-2.938,2.446,1.547,1.547,0,0,0,.5,1.634L52.235,66.2a.413.413,0,0,1,.131.205,16.825,16.825,0,0,0,3.072,6.447c2.5,2.893,4.669,4.081,6.455,3.533,4.01-1.232,5.133-10.634,5.143-10.729a.415.415,0,0,1,.825.094c-.046.4-1.17,9.8-5.558,11.371a20.991,20.991,0,0,0,1.342,6.211c1.767-3.173,8.721-15.879,9-19.766A34.113,34.113,0,0,1,70,59.219,2.96,2.96,0,0,1,68.088,61.042ZM61.431,24.531c-1.779,3.774-5.684,10.625-11.943,14.355a2.567,2.567,0,0,1-3.79-1.627c-.3-1.359-1.857-4.417-3.836-3.662-2.178.83-2.2,5.077-2.343,6.83a53.933,53.933,0,0,0,6.3,8.761,6.6,6.6,0,0,0,9.091.586c7.452-6.31,9.37-16.123,6.522-25.244Zm35.38,25.144c2.094-14.592-10.624-31.493-26.038-31.188a23.448,23.448,0,0,0-8.72,1.977c3.746,7.119,5.619,14.605,2.625,22.455,2.974.977,6.375,3.162,6.414,6.61a1.828,1.828,0,0,1,.375.674c.764,2.492,2.157,5.806,4.453,7.433a8.046,8.046,0,0,1,.76.627,21.48,21.48,0,0,0,.082-4.346A16.739,16.739,0,0,1,79.4,43.935a3.263,3.263,0,0,1-.682-.7c-1.991-.057-3.426-1.776-3.426-4.135,0-2.374,3.042-7.451,3.171-7.665a.416.416,0,0,1,.712,0,39.223,39.223,0,0,1,2.405,4.739,41.562,41.562,0,0,1,3.788-2.4.415.415,0,0,1,.616.355,41.383,41.383,0,0,1-.191,4.474,39.244,39.244,0,0,1,5.316-.291.414.414,0,0,1,.356.615c-.122.219-3.007,5.386-5.068,6.573-1.72.991-4.166.951-5.3-.893a3.258,3.258,0,0,1-.963-.248,16.047,16.047,0,0,0-2.541,9.493A21.47,21.47,0,0,1,77.408,59a7.383,7.383,0,0,1,1.959,6.945,57.688,57.688,0,0,0-1.09,6.32,51.938,51.938,0,0,1,2.159,5.893c8.1-8.543,14.936-18.45,16.376-28.481ZM84.169,41.938c.851-1.47.972-5.454.985-7.083-1.408.826-4.805,2.923-5.656,4.392-.794,1.372-.874,3.321.676,4.214,1.375.792,3.018.166,3.995-1.523Zm-2.081,2.614c.885.974,2.4,1.09,3.893.233,1.473-.849,3.574-4.238,4.4-5.643a36.568,36.568,0,0,0-4.7.312,8.708,8.708,0,0,1-.8,2.9A4.377,4.377,0,0,1,82.089,44.552Zm-3.309-5.719A8.736,8.736,0,0,1,80.9,36.692a36.428,36.428,0,0,0-2.077-4.213c-.805,1.417-2.7,4.928-2.7,6.626,0,1.718.861,2.978,2.152,3.254A4.61,4.61,0,0,1,78.779,38.833Zm.987,40.021a43.258,43.258,0,0,0-1.738-5.032c-.424,2.617-.936,5.545-1.433,8.2Q78.2,80.473,79.767,78.854Zm-15.375,20.8a8.66,8.66,0,0,0,2.357-.312c3.626-1.022,6.125-4.527,7.642-10.716.957-3.907,2.929-14.952,3.576-20.031a20.953,20.953,0,0,1,.6-2.87c1.19-4.377-3.073-7.379-3.121-7.412-2.491-1.766-3.969-5.254-4.771-7.869a.987.987,0,0,0-1.9.1c-.982,5.08,4.573,12.568,4.629,12.643a.413.413,0,0,1,.083.261c-.137,4.428-9.137,20.335-9.521,21.01a.416.416,0,0,1-.63.112c-.055-.046-3.633-3.08-8.388-6.917L45.954,89.988c7.728,6.473,13.824,9.669,18.437,9.668Zm-15.43,3.749c1.531-.945,4.258-2.685,7.69-5.095-5.463-2.7-12.1-7.934-20.033-15.769a8.006,8.006,0,0,1-2.088-3.568c-1.862.693-4.309.446-5.895,1.609-1.721,1.262-2.432,3.938-3.274,5.787A217.662,217.662,0,0,0,48.961,103.406ZM1.107,49.675c.968,6.745,4.376,13.435,8.968,19.692,2.644-7.9,6.663-13.53,6.758-22.167A43.218,43.218,0,0,1,28.417,18.553c-8-.659-15.012,3.69-20.2,9.421C2.36,34.443-.032,41.744,1.107,49.675Z" transform="translate(0 -11.001)" fill="#371731"/>
      <path id="Trazado_773038" data-name="Trazado 773038" d="M373.322,283.281c3.122,2.192,5.363,2.89,7.048,2.67a3.617,3.617,0,0,1-.753.31c-1.8.508-4.19-.307-7.3-2.491-4.71-3.307-6.224-13.094.248-24.719.179-.321.346-.634.509-.945a1.449,1.449,0,0,1,.373-.084C366.956,269.679,368.369,279.8,373.322,283.281Z" transform="translate(-358.854 -206.803)" fill="#ff5fe8" opacity="0.3"/>
    </g>
  </g>
</svg>
