<svg xmlns="http://www.w3.org/2000/svg" xmlns:xlink="http://www.w3.org/1999/xlink" width="400" height="435" viewBox="0 0 400 435">
  <defs>
    <clipPath id="clip-path">
      <rect id="Rectángulo_374465" data-name="Rectángulo 374465" width="233.143" height="403.662" fill="none"/>
    </clipPath>
  </defs>
  <g id="Grupo_1067637" data-name="Grupo 1067637" transform="translate(-180 -7604.753)">
    <path id="doctor-haciendo-su-trabajo-oficina-pediatria_2_" data-name="doctor-haciendo-su-trabajo-oficina-pediatria (2)" d="M12,0H388a12,12,0,0,1,12,12V423a12,12,0,0,1-12,12H12A12,12,0,0,1,0,423V12A12,12,0,0,1,12,0Z" transform="translate(180 7604.753)" fill="#f5f9fe"/>
    <g id="Grupo_1066999" data-name="Grupo 1066999" transform="translate(263 7620.753)" clip-path="url(#clip-path)">
      <path id="Trazado_812644" data-name="Trazado 812644" d="M133.093,158.509A75.255,75.255,0,1,0,57.838,83.255" transform="translate(14.755 2.041)" fill="none" stroke="#fec759" stroke-miterlimit="10" stroke-width="16"/>
      <path id="Trazado_812645" data-name="Trazado 812645" d="M72.527,250.776a75.26,75.26,0,1,1,64.527-127.117" transform="translate(2.041 25.772)" fill="none" stroke="#83b4f6" stroke-miterlimit="10" stroke-width="16"/>
      <path id="Trazado_812646" data-name="Trazado 812646" d="M136.5,108.647l-24.187,24.187L136.5,157.021Z" transform="translate(28.652 27.716)" fill="#fec759"/>
      <path id="Trazado_812647" data-name="Trazado 812647" d="M55.606,202.094l24.187,24.187L55.606,250.468Z" transform="translate(14.185 51.554)" fill="#83b4f6"/>
      <line id="Línea_1630" data-name="Línea 1630" x2="24.187" y2="24.187" transform="translate(69.792 252.361)" fill="#ff3a31"/>
      <path id="Trazado_812648" data-name="Trazado 812648" d="M80.076,211.792a75.857,75.857,0,1,1-25.541,59.276q-.04-1.231-.039-2.473" transform="translate(13.902 49.168)" fill="none" stroke="#fd998e" stroke-miterlimit="10" stroke-width="16"/>
    </g>
    <path id="Trazado_813834" data-name="Trazado 813834" d="M-37.148-3.384A3.923,3.923,0,0,1-38.4-.773a4.093,4.093,0,0,1-2.794.919A3.758,3.758,0,0,1-44.22-1.208a5.451,5.451,0,0,1-1.139-3.625V-5.859a6.076,6.076,0,0,1,.531-2.615,3.966,3.966,0,0,1,1.505-1.732,4.191,4.191,0,0,1,2.256-.6,3.853,3.853,0,0,1,2.725.948,3.971,3.971,0,0,1,1.194,2.626h-1.414a3.064,3.064,0,0,0-.795-1.851,2.4,2.4,0,0,0-1.71-.573,2.516,2.516,0,0,0-2.113,1,4.577,4.577,0,0,0-.765,2.837v1.034A4.7,4.7,0,0,0-43.22-2.03,2.343,2.343,0,0,0-41.191-1a2.706,2.706,0,0,0,1.8-.531,2.947,2.947,0,0,0,.831-1.849Zm1.348-.652a4.681,4.681,0,0,1,.458-2.095,3.415,3.415,0,0,1,1.274-1.436A3.469,3.469,0,0,1-32.2-8.071a3.342,3.342,0,0,1,2.618,1.121,4.311,4.311,0,0,1,1,2.981v.1A4.722,4.722,0,0,1-29.03-1.8,3.365,3.365,0,0,1-30.3-.366,3.509,3.509,0,0,1-32.19.146,3.334,3.334,0,0,1-34.8-.974a4.29,4.29,0,0,1-1-2.966Zm1.362.161a3.39,3.39,0,0,0,.612,2.117,1.957,1.957,0,0,0,1.637.8,1.945,1.945,0,0,0,1.641-.809,3.707,3.707,0,0,0,.608-2.267,3.384,3.384,0,0,0-.619-2.113A1.968,1.968,0,0,0-32.2-6.958a1.946,1.946,0,0,0-1.619.8A3.68,3.68,0,0,0-34.438-3.875Zm8.833-4.05.044,1a2.888,2.888,0,0,1,2.373-1.143q2.512,0,2.534,2.834V0h-1.355V-5.244A1.824,1.824,0,0,0-22.4-6.511a1.57,1.57,0,0,0-1.2-.41,1.956,1.956,0,0,0-1.157.352,2.387,2.387,0,0,0-.776.923V0h-1.355V-7.925ZM-14-2.1a1,1,0,0,0-.414-.853,3.983,3.983,0,0,0-1.443-.524,6.822,6.822,0,0,1-1.633-.527,2.324,2.324,0,0,1-.894-.732,1.752,1.752,0,0,1-.289-1.011A2.056,2.056,0,0,1-17.845-7.4a3.218,3.218,0,0,1,2.106-.674,3.311,3.311,0,0,1,2.186.7,2.21,2.21,0,0,1,.839,1.78h-1.362a1.223,1.223,0,0,0-.472-.959,1.77,1.77,0,0,0-1.19-.4,1.852,1.852,0,0,0-1.157.322,1.014,1.014,0,0,0-.417.842.822.822,0,0,0,.388.74,4.776,4.776,0,0,0,1.4.476,7.308,7.308,0,0,1,1.644.542,2.4,2.4,0,0,1,.934.758,1.864,1.864,0,0,1,.3,1.08,2.028,2.028,0,0,1-.85,1.7,3.564,3.564,0,0,1-2.2.641A3.991,3.991,0,0,1-17.38-.19a2.74,2.74,0,0,1-1.146-.941,2.268,2.268,0,0,1-.414-1.307h1.355a1.4,1.4,0,0,0,.546,1.08,2.117,2.117,0,0,0,1.344.4,2.185,2.185,0,0,0,1.234-.311A.956.956,0,0,0-14-2.1Zm4.958-7.742v1.919h1.479v1.047H-9.038v4.921a1.1,1.1,0,0,0,.2.715A.832.832,0,0,0-8.167-1a3.281,3.281,0,0,0,.645-.088V0a3.951,3.951,0,0,1-1.04.146A1.687,1.687,0,0,1-9.932-.4a2.36,2.36,0,0,1-.461-1.56V-6.877h-1.443V-7.925h1.443V-9.844Zm6.892,3.135a4.061,4.061,0,0,0-.667-.051A1.786,1.786,0,0,0-4.622-5.625V0H-5.977V-7.925h1.318l.022.916a2.11,2.11,0,0,1,1.89-1.062,1.384,1.384,0,0,1,.6.1ZM3.992-.784A2.878,2.878,0,0,1,1.67.146,2.464,2.464,0,0,1-.26-.59,3.186,3.186,0,0,1-.93-2.769V-7.925H.425v5.12Q.425-1,1.89-1A2.028,2.028,0,0,0,3.955-2.161V-7.925H5.31V0H4.021Zm6.555-.176A1.952,1.952,0,0,0,11.814-1.4a1.546,1.546,0,0,0,.6-1.1H13.7a2.457,2.457,0,0,1-.469,1.3,3.087,3.087,0,0,1-1.154.981,3.329,3.329,0,0,1-1.527.366A3.265,3.265,0,0,1,7.972-.934a4.3,4.3,0,0,1-.956-2.955v-.227a4.771,4.771,0,0,1,.425-2.058,3.236,3.236,0,0,1,1.219-1.4,3.464,3.464,0,0,1,1.879-.5,3.178,3.178,0,0,1,2.216.8A2.853,2.853,0,0,1,13.7-5.2H12.415a1.867,1.867,0,0,0-.582-1.263,1.811,1.811,0,0,0-1.293-.494,1.9,1.9,0,0,0-1.6.743,3.491,3.491,0,0,0-.568,2.15v.256A3.422,3.422,0,0,0,8.936-1.7,1.906,1.906,0,0,0,10.547-.959Zm7.852,0A1.952,1.952,0,0,0,19.666-1.4a1.546,1.546,0,0,0,.6-1.1h1.282a2.457,2.457,0,0,1-.469,1.3,3.087,3.087,0,0,1-1.154.981A3.329,3.329,0,0,1,18.4.146a3.265,3.265,0,0,1-2.574-1.08,4.3,4.3,0,0,1-.956-2.955v-.227a4.771,4.771,0,0,1,.425-2.058,3.236,3.236,0,0,1,1.219-1.4,3.464,3.464,0,0,1,1.879-.5,3.178,3.178,0,0,1,2.216.8A2.853,2.853,0,0,1,21.548-5.2H20.266a1.867,1.867,0,0,0-.582-1.263,1.811,1.811,0,0,0-1.293-.494,1.9,1.9,0,0,0-1.6.743,3.491,3.491,0,0,0-.568,2.15v.256A3.422,3.422,0,0,0,16.787-1.7,1.906,1.906,0,0,0,18.4-.959ZM24.543,0H23.188V-7.925h1.355ZM23.079-10.027a.809.809,0,0,1,.2-.557.756.756,0,0,1,.6-.227.768.768,0,0,1,.6.227.8.8,0,0,1,.205.557.774.774,0,0,1-.205.549.782.782,0,0,1-.6.22.77.77,0,0,1-.6-.22A.782.782,0,0,1,23.079-10.027Zm3.274,5.991A4.681,4.681,0,0,1,26.81-6.13a3.415,3.415,0,0,1,1.274-1.436,3.469,3.469,0,0,1,1.864-.505,3.342,3.342,0,0,1,2.618,1.121,4.311,4.311,0,0,1,1,2.981v.1A4.722,4.722,0,0,1,33.124-1.8,3.365,3.365,0,0,1,31.857-.366a3.509,3.509,0,0,1-1.893.513A3.334,3.334,0,0,1,27.352-.974a4.29,4.29,0,0,1-1-2.966Zm1.362.161a3.39,3.39,0,0,0,.612,2.117,1.957,1.957,0,0,0,1.637.8A1.945,1.945,0,0,0,31.6-1.769a3.707,3.707,0,0,0,.608-2.267,3.384,3.384,0,0,0-.619-2.113,1.968,1.968,0,0,0-1.644-.809,1.946,1.946,0,0,0-1.619.8A3.68,3.68,0,0,0,27.715-3.875Zm2.849-7.375H32.2L30.242-9.1l-1.091,0Zm5.984,3.325.044,1a2.888,2.888,0,0,1,2.373-1.143q2.512,0,2.534,2.834V0H40.144V-5.244a1.824,1.824,0,0,0-.392-1.267,1.57,1.57,0,0,0-1.2-.41A1.956,1.956,0,0,0,37.4-6.57a2.387,2.387,0,0,0-.776.923V0H35.266V-7.925Zm-73.561,20.9a4.642,4.642,0,0,1,.864-2.933,2.733,2.733,0,0,1,2.263-1.11,2.748,2.748,0,0,1,2.2.952V5.75h1.355V17h-1.245l-.066-.85a2.759,2.759,0,0,1-2.263,1,2.707,2.707,0,0,1-2.245-1.128,4.7,4.7,0,0,1-.868-2.944Zm1.355.154a3.515,3.515,0,0,0,.557,2.109A1.8,1.8,0,0,0-33.563,16a1.977,1.977,0,0,0,1.882-1.157V11.2a1.992,1.992,0,0,0-1.868-1.121,1.808,1.808,0,0,0-1.553.769A3.87,3.87,0,0,0-35.658,13.125Zm10.723,4.021a3.463,3.463,0,0,1-2.622-1.058,3.928,3.928,0,0,1-1.011-2.831v-.249a4.756,4.756,0,0,1,.45-2.106,3.514,3.514,0,0,1,1.26-1.45A3.167,3.167,0,0,1-25.1,8.929a2.968,2.968,0,0,1,2.4,1.018,4.408,4.408,0,0,1,.857,2.915v.564h-5.369a2.817,2.817,0,0,0,.685,1.893,2.153,2.153,0,0,0,1.666.721,2.36,2.36,0,0,0,1.216-.293,3.055,3.055,0,0,0,.872-.776l.828.645A3.328,3.328,0,0,1-24.935,17.146Zm-.168-7.1a1.807,1.807,0,0,0-1.377.6,2.9,2.9,0,0,0-.688,1.674h3.97v-.1a2.581,2.581,0,0,0-.557-1.6A1.7,1.7,0,0,0-25.1,10.042Zm11.155,5.12,1.963-6.086H-10.6L-13.444,17h-1.033l-2.871-7.925h1.384ZM-7.826,17H-9.188V9.075h1.362Zm.015-11.243h1.641L-8.134,7.911l-1.091,0Zm3.5,3.318.044,1A2.888,2.888,0,0,1-1.893,8.929q2.512,0,2.534,2.834V17H-.714V11.756a1.824,1.824,0,0,0-.392-1.267,1.57,1.57,0,0,0-1.2-.41,1.956,1.956,0,0,0-1.157.352,2.387,2.387,0,0,0-.776.923V17H-5.592V9.075ZM5.863,16.041A1.952,1.952,0,0,0,7.13,15.6a1.546,1.546,0,0,0,.6-1.1H9.012a2.457,2.457,0,0,1-.469,1.3,3.087,3.087,0,0,1-1.154.981,3.329,3.329,0,0,1-1.527.366,3.265,3.265,0,0,1-2.574-1.08,4.3,4.3,0,0,1-.956-2.955v-.227a4.771,4.771,0,0,1,.425-2.058,3.236,3.236,0,0,1,1.219-1.4,3.464,3.464,0,0,1,1.879-.5,3.178,3.178,0,0,1,2.216.8A2.853,2.853,0,0,1,9.012,11.8H7.731a1.867,1.867,0,0,0-.582-1.263,1.811,1.811,0,0,0-1.293-.494,1.9,1.9,0,0,0-1.6.743,3.491,3.491,0,0,0-.568,2.15v.256A3.422,3.422,0,0,0,4.252,15.3,1.906,1.906,0,0,0,5.863,16.041Zm9.565.176a2.878,2.878,0,0,1-2.322.93,2.464,2.464,0,0,1-1.93-.736,3.186,3.186,0,0,1-.67-2.179V9.075h1.355v5.12q0,1.8,1.465,1.8a2.028,2.028,0,0,0,2.065-1.157V9.075h1.355V17H15.458ZM20.277,17H18.922V5.75h1.355Zm1.809-4.036a4.681,4.681,0,0,1,.458-2.095,3.415,3.415,0,0,1,1.274-1.436,3.469,3.469,0,0,1,1.864-.505A3.342,3.342,0,0,1,28.3,10.049a4.311,4.311,0,0,1,1,2.981v.1a4.722,4.722,0,0,1-.443,2.076,3.365,3.365,0,0,1-1.267,1.432,3.509,3.509,0,0,1-1.893.513,3.334,3.334,0,0,1-2.611-1.121,4.29,4.29,0,0,1-1-2.966Zm1.362.161a3.39,3.39,0,0,0,.612,2.117,2.072,2.072,0,0,0,3.278-.011,3.707,3.707,0,0,0,.608-2.267,3.384,3.384,0,0,0-.619-2.113,1.968,1.968,0,0,0-1.644-.809,1.946,1.946,0,0,0-1.619.8A3.68,3.68,0,0,0,23.448,13.125ZM35.614,14.9a1,1,0,0,0-.414-.853,3.983,3.983,0,0,0-1.443-.524,6.822,6.822,0,0,1-1.633-.527,2.324,2.324,0,0,1-.894-.732,1.752,1.752,0,0,1-.289-1.011A2.056,2.056,0,0,1,31.765,9.6a3.218,3.218,0,0,1,2.106-.674,3.311,3.311,0,0,1,2.186.7A2.21,2.21,0,0,1,36.9,11.4H35.533a1.223,1.223,0,0,0-.472-.959,1.77,1.77,0,0,0-1.19-.4,1.852,1.852,0,0,0-1.157.322,1.014,1.014,0,0,0-.417.842.822.822,0,0,0,.388.74,4.776,4.776,0,0,0,1.4.476,7.308,7.308,0,0,1,1.644.542,2.4,2.4,0,0,1,.934.758,1.864,1.864,0,0,1,.3,1.08,2.028,2.028,0,0,1-.85,1.7,3.564,3.564,0,0,1-2.2.641,3.991,3.991,0,0,1-1.685-.337,2.74,2.74,0,0,1-1.146-.941,2.268,2.268,0,0,1-.414-1.307h1.355a1.4,1.4,0,0,0,.546,1.08,2.117,2.117,0,0,0,1.344.4,2.185,2.185,0,0,0,1.234-.311A.956.956,0,0,0,35.614,14.9ZM-44.44,34.146a3.463,3.463,0,0,1-2.622-1.058,3.928,3.928,0,0,1-1.011-2.831v-.249a4.756,4.756,0,0,1,.45-2.106,3.514,3.514,0,0,1,1.26-1.45,3.167,3.167,0,0,1,1.754-.524,2.968,2.968,0,0,1,2.4,1.018,4.408,4.408,0,0,1,.857,2.915v.564h-5.369a2.817,2.817,0,0,0,.685,1.893,2.153,2.153,0,0,0,1.666.721,2.36,2.36,0,0,0,1.216-.293,3.055,3.055,0,0,0,.872-.776l.828.645A3.328,3.328,0,0,1-44.44,34.146Zm-.168-7.1a1.807,1.807,0,0,0-1.377.6,2.9,2.9,0,0,0-.688,1.674h3.97v-.1a2.581,2.581,0,0,0-.557-1.6A1.7,1.7,0,0,0-44.608,27.042ZM-34.6,34h-1.355V26.075H-34.6Zm-1.465-10.027a.809.809,0,0,1,.2-.557.756.756,0,0,1,.6-.227.768.768,0,0,1,.6.227.8.8,0,0,1,.205.557.774.774,0,0,1-.205.549.782.782,0,0,1-.6.22.77.77,0,0,1-.6-.22A.782.782,0,0,1-36.061,23.973Zm4.915,2.1.044,1a2.888,2.888,0,0,1,2.373-1.143q2.512,0,2.534,2.834V34H-27.55V28.756a1.824,1.824,0,0,0-.392-1.267,1.57,1.57,0,0,0-1.2-.41,1.956,1.956,0,0,0-1.157.352,2.387,2.387,0,0,0-.776.923V34h-1.355V26.075Zm8.833-1.919v1.919h1.479v1.047h-1.479v4.921a1.1,1.1,0,0,0,.2.715.832.832,0,0,0,.674.238,3.281,3.281,0,0,0,.645-.088V34a3.951,3.951,0,0,1-1.04.146,1.687,1.687,0,0,1-1.37-.549,2.36,2.36,0,0,1-.461-1.56V27.123h-1.443V26.075h1.443V24.156Zm6.35,9.99a3.463,3.463,0,0,1-2.622-1.058A3.928,3.928,0,0,1-19.6,30.257v-.249a4.756,4.756,0,0,1,.45-2.106,3.514,3.514,0,0,1,1.26-1.45,3.167,3.167,0,0,1,1.754-.524,2.968,2.968,0,0,1,2.4,1.018,4.408,4.408,0,0,1,.857,2.915v.564h-5.369a2.817,2.817,0,0,0,.685,1.893,2.153,2.153,0,0,0,1.666.721,2.36,2.36,0,0,0,1.216-.293,3.055,3.055,0,0,0,.872-.776l.828.645A3.328,3.328,0,0,1-15.963,34.146Zm-.168-7.1a1.807,1.807,0,0,0-1.377.6,2.9,2.9,0,0,0-.688,1.674h3.97v-.1a2.581,2.581,0,0,0-.557-1.6A1.7,1.7,0,0,0-16.132,27.042Zm8.657.249a4.06,4.06,0,0,0-.667-.051A1.786,1.786,0,0,0-9.95,28.375V34H-11.3V26.075h1.318l.022.916a2.11,2.11,0,0,1,1.89-1.062,1.384,1.384,0,0,1,.6.1ZM-1.63,34a2.846,2.846,0,0,1-.19-.835,3.023,3.023,0,0,1-2.256.981A2.8,2.8,0,0,1-6,33.484,2.145,2.145,0,0,1-6.749,31.8a2.24,2.24,0,0,1,.941-1.923A4.437,4.437,0,0,1-3.16,29.2h1.318v-.623a1.522,1.522,0,0,0-.425-1.132,1.707,1.707,0,0,0-1.252-.421,1.976,1.976,0,0,0-1.216.366,1.079,1.079,0,0,0-.491.886H-6.588a1.87,1.87,0,0,1,.421-1.146,2.874,2.874,0,0,1,1.143-.875,3.844,3.844,0,0,1,1.586-.322,3.133,3.133,0,0,1,2.146.685A2.47,2.47,0,0,1-.487,28.5v3.647a4.459,4.459,0,0,0,.278,1.736V34Zm-2.249-1.033a2.381,2.381,0,0,0,1.208-.33,1.994,1.994,0,0,0,.828-.857V30.155H-2.9q-2.49,0-2.49,1.458a1.234,1.234,0,0,0,.425,1A1.633,1.633,0,0,0-3.878,32.967Zm8.694.073A1.952,1.952,0,0,0,6.083,32.6a1.546,1.546,0,0,0,.6-1.1H7.965A2.457,2.457,0,0,1,7.5,32.8a3.087,3.087,0,0,1-1.154.981,3.329,3.329,0,0,1-1.527.366,3.265,3.265,0,0,1-2.574-1.08,4.3,4.3,0,0,1-.956-2.955v-.227a4.771,4.771,0,0,1,.425-2.058,3.236,3.236,0,0,1,1.219-1.4,3.464,3.464,0,0,1,1.879-.5,3.178,3.178,0,0,1,2.216.8A2.853,2.853,0,0,1,7.965,28.8H6.683A1.867,1.867,0,0,0,6.1,27.536a1.811,1.811,0,0,0-1.293-.494,1.9,1.9,0,0,0-1.6.743,3.491,3.491,0,0,0-.568,2.15v.256A3.422,3.422,0,0,0,3.2,32.3,1.906,1.906,0,0,0,4.816,33.041Zm7.852,0a1.952,1.952,0,0,0,1.267-.439,1.546,1.546,0,0,0,.6-1.1h1.282a2.457,2.457,0,0,1-.469,1.3,3.087,3.087,0,0,1-1.154.981,3.329,3.329,0,0,1-1.527.366,3.265,3.265,0,0,1-2.574-1.08,4.3,4.3,0,0,1-.956-2.955v-.227a4.771,4.771,0,0,1,.425-2.058,3.236,3.236,0,0,1,1.219-1.4,3.464,3.464,0,0,1,1.879-.5,3.178,3.178,0,0,1,2.216.8,2.853,2.853,0,0,1,.941,2.073H14.535a1.867,1.867,0,0,0-.582-1.263,1.811,1.811,0,0,0-1.293-.494,1.9,1.9,0,0,0-1.6.743,3.491,3.491,0,0,0-.568,2.15v.256a3.422,3.422,0,0,0,.564,2.109A1.906,1.906,0,0,0,12.667,33.041ZM18.812,34H17.457V26.075h1.355ZM17.347,23.973a.809.809,0,0,1,.2-.557.756.756,0,0,1,.6-.227.768.768,0,0,1,.6.227.8.8,0,0,1,.205.557.774.774,0,0,1-.205.549.782.782,0,0,1-.6.22.77.77,0,0,1-.6-.22A.782.782,0,0,1,17.347,23.973Zm3.274,5.991a4.681,4.681,0,0,1,.458-2.095,3.415,3.415,0,0,1,1.274-1.436,3.469,3.469,0,0,1,1.864-.505,3.342,3.342,0,0,1,2.618,1.121,4.311,4.311,0,0,1,1,2.981v.1a4.722,4.722,0,0,1-.443,2.076,3.365,3.365,0,0,1-1.267,1.432,3.509,3.509,0,0,1-1.893.513,3.334,3.334,0,0,1-2.611-1.121,4.29,4.29,0,0,1-1-2.966Zm1.362.161a3.39,3.39,0,0,0,.612,2.117,2.072,2.072,0,0,0,3.278-.011,3.707,3.707,0,0,0,.608-2.267,3.384,3.384,0,0,0-.619-2.113,1.968,1.968,0,0,0-1.644-.809,1.946,1.946,0,0,0-1.619.8A3.68,3.68,0,0,0,21.984,30.125Zm8.833-4.05.044,1a2.888,2.888,0,0,1,2.373-1.143q2.512,0,2.534,2.834V34H34.413V28.756a1.824,1.824,0,0,0-.392-1.267,1.57,1.57,0,0,0-1.2-.41,1.956,1.956,0,0,0-1.157.352,2.387,2.387,0,0,0-.776.923V34H29.535V26.075ZM41.1,34.146a3.463,3.463,0,0,1-2.622-1.058,3.928,3.928,0,0,1-1.011-2.831v-.249a4.756,4.756,0,0,1,.45-2.106,3.514,3.514,0,0,1,1.26-1.45,3.167,3.167,0,0,1,1.754-.524,2.968,2.968,0,0,1,2.4,1.018,4.408,4.408,0,0,1,.857,2.915v.564H38.822a2.817,2.817,0,0,0,.685,1.893,2.153,2.153,0,0,0,1.666.721,2.36,2.36,0,0,0,1.216-.293,3.055,3.055,0,0,0,.872-.776l.828.645A3.328,3.328,0,0,1,41.1,34.146Zm-.168-7.1a1.807,1.807,0,0,0-1.377.6,2.9,2.9,0,0,0-.688,1.674h3.97v-.1a2.581,2.581,0,0,0-.557-1.6A1.7,1.7,0,0,0,40.931,27.042ZM50.372,31.9a1,1,0,0,0-.414-.853,3.983,3.983,0,0,0-1.443-.524,6.822,6.822,0,0,1-1.633-.527,2.324,2.324,0,0,1-.894-.732A1.752,1.752,0,0,1,45.7,28.25a2.056,2.056,0,0,1,.824-1.648,3.218,3.218,0,0,1,2.106-.674,3.311,3.311,0,0,1,2.186.7,2.21,2.21,0,0,1,.839,1.78H50.292a1.223,1.223,0,0,0-.472-.959,1.77,1.77,0,0,0-1.19-.4,1.852,1.852,0,0,0-1.157.322,1.014,1.014,0,0,0-.417.842.822.822,0,0,0,.388.74,4.776,4.776,0,0,0,1.4.476,7.308,7.308,0,0,1,1.644.542,2.4,2.4,0,0,1,.934.758,1.864,1.864,0,0,1,.3,1.08,2.028,2.028,0,0,1-.85,1.7,3.564,3.564,0,0,1-2.2.641,3.991,3.991,0,0,1-1.685-.337,2.74,2.74,0,0,1-1.146-.941,2.268,2.268,0,0,1-.414-1.307h1.355a1.4,1.4,0,0,0,.546,1.08,2.117,2.117,0,0,0,1.344.4,2.185,2.185,0,0,0,1.234-.311A.956.956,0,0,0,50.372,31.9Z" transform="translate(409.86 7686.969)" fill="#12263f"/>
    <path id="Trazado_813835" data-name="Trazado 813835" d="M-42.627-9.514h-3.428V0h-1.4V-9.514h-3.42v-1.15h8.247Zm4.651,2.805a4.061,4.061,0,0,0-.667-.051,1.786,1.786,0,0,0-1.809,1.135V0h-1.355V-7.925h1.318l.022.916a2.11,2.11,0,0,1,1.89-1.062,1.384,1.384,0,0,1,.6.1ZM-32.131,0a2.846,2.846,0,0,1-.19-.835,3.023,3.023,0,0,1-2.256.981A2.8,2.8,0,0,1-36.5-.516,2.145,2.145,0,0,1-37.251-2.2,2.24,2.24,0,0,1-36.31-4.12,4.437,4.437,0,0,1-33.662-4.8h1.318v-.623a1.522,1.522,0,0,0-.425-1.132,1.707,1.707,0,0,0-1.252-.421,1.976,1.976,0,0,0-1.216.366,1.079,1.079,0,0,0-.491.886H-37.09a1.87,1.87,0,0,1,.421-1.146,2.874,2.874,0,0,1,1.143-.875,3.844,3.844,0,0,1,1.586-.322,3.133,3.133,0,0,1,2.146.685A2.47,2.47,0,0,1-30.989-5.5v3.647A4.459,4.459,0,0,0-30.71-.117V0ZM-34.38-1.033a2.381,2.381,0,0,0,1.208-.33,1.994,1.994,0,0,0,.828-.857V-3.845h-1.062q-2.49,0-2.49,1.458a1.234,1.234,0,0,0,.425,1A1.633,1.633,0,0,0-34.38-1.033Zm6.8-6.892.044,1a2.888,2.888,0,0,1,2.373-1.143q2.512,0,2.534,2.834V0h-1.355V-5.244a1.824,1.824,0,0,0-.392-1.267,1.57,1.57,0,0,0-1.2-.41,1.956,1.956,0,0,0-1.157.352,2.387,2.387,0,0,0-.776.923V0h-1.355V-7.925ZM-15.974-2.1a1,1,0,0,0-.414-.853,3.983,3.983,0,0,0-1.443-.524,6.822,6.822,0,0,1-1.633-.527,2.324,2.324,0,0,1-.894-.732,1.752,1.752,0,0,1-.289-1.011A2.056,2.056,0,0,1-19.823-7.4a3.218,3.218,0,0,1,2.106-.674,3.311,3.311,0,0,1,2.186.7,2.21,2.21,0,0,1,.839,1.78h-1.362a1.223,1.223,0,0,0-.472-.959,1.77,1.77,0,0,0-1.19-.4,1.852,1.852,0,0,0-1.157.322,1.014,1.014,0,0,0-.417.842.822.822,0,0,0,.388.74,4.776,4.776,0,0,0,1.4.476,7.308,7.308,0,0,1,1.644.542,2.4,2.4,0,0,1,.934.758,1.864,1.864,0,0,1,.3,1.08,2.028,2.028,0,0,1-.85,1.7,3.564,3.564,0,0,1-2.2.641A3.991,3.991,0,0,1-19.358-.19,2.74,2.74,0,0,1-20.5-1.132a2.268,2.268,0,0,1-.414-1.307h1.355a1.4,1.4,0,0,0,.546,1.08,2.117,2.117,0,0,0,1.344.4,2.185,2.185,0,0,0,1.234-.311A.956.956,0,0,0-15.974-2.1Zm4.395-5.823.037.879A2.927,2.927,0,0,1-9.192-8.071,2.266,2.266,0,0,1-6.929-6.8,3,3,0,0,1-5.9-7.72a3.039,3.039,0,0,1,1.5-.352q2.607,0,2.651,2.761V0H-3.105V-5.229A1.82,1.82,0,0,0-3.494-6.5a1.71,1.71,0,0,0-1.3-.421,1.8,1.8,0,0,0-1.252.45,1.827,1.827,0,0,0-.579,1.212V0H-7.991V-5.193A1.512,1.512,0,0,0-9.683-6.921a1.813,1.813,0,0,0-1.824,1.135V0h-1.355V-7.925ZM1.765,0H.41V-7.925H1.765ZM.3-10.027a.809.809,0,0,1,.2-.557.756.756,0,0,1,.6-.227.768.768,0,0,1,.6.227.8.8,0,0,1,.205.557.774.774,0,0,1-.205.549.782.782,0,0,1-.6.22.77.77,0,0,1-.6-.22A.782.782,0,0,1,.3-10.027ZM8.547-2.1a1,1,0,0,0-.414-.853,3.983,3.983,0,0,0-1.443-.524,6.822,6.822,0,0,1-1.633-.527,2.324,2.324,0,0,1-.894-.732A1.752,1.752,0,0,1,3.875-5.75,2.056,2.056,0,0,1,4.7-7.4,3.218,3.218,0,0,1,6.8-8.071a3.311,3.311,0,0,1,2.186.7A2.21,2.21,0,0,1,9.829-5.6H8.467a1.223,1.223,0,0,0-.472-.959,1.77,1.77,0,0,0-1.19-.4,1.852,1.852,0,0,0-1.157.322,1.014,1.014,0,0,0-.417.842.822.822,0,0,0,.388.74,4.776,4.776,0,0,0,1.4.476,7.308,7.308,0,0,1,1.644.542,2.4,2.4,0,0,1,.934.758A1.864,1.864,0,0,1,9.9-2.2a2.028,2.028,0,0,1-.85,1.7,3.564,3.564,0,0,1-2.2.641A3.991,3.991,0,0,1,5.164-.19a2.74,2.74,0,0,1-1.146-.941A2.268,2.268,0,0,1,3.6-2.439H4.958A1.4,1.4,0,0,0,5.5-1.359a2.117,2.117,0,0,0,1.344.4,2.185,2.185,0,0,0,1.234-.311A.956.956,0,0,0,8.547-2.1ZM13.14,0H11.785V-7.925H13.14ZM11.675-10.027a.809.809,0,0,1,.2-.557.756.756,0,0,1,.6-.227.768.768,0,0,1,.6.227.8.8,0,0,1,.205.557.774.774,0,0,1-.205.549.782.782,0,0,1-.6.22.77.77,0,0,1-.6-.22A.782.782,0,0,1,11.675-10.027Zm3.274,5.991a4.681,4.681,0,0,1,.458-2.095,3.415,3.415,0,0,1,1.274-1.436,3.469,3.469,0,0,1,1.864-.505,3.342,3.342,0,0,1,2.618,1.121,4.311,4.311,0,0,1,1,2.981v.1A4.722,4.722,0,0,1,21.72-1.8,3.365,3.365,0,0,1,20.453-.366,3.509,3.509,0,0,1,18.56.146,3.334,3.334,0,0,1,15.948-.974a4.29,4.29,0,0,1-1-2.966Zm1.362.161a3.39,3.39,0,0,0,.612,2.117,1.957,1.957,0,0,0,1.637.8A1.945,1.945,0,0,0,20.2-1.769a3.707,3.707,0,0,0,.608-2.267,3.384,3.384,0,0,0-.619-2.113,1.968,1.968,0,0,0-1.644-.809,1.946,1.946,0,0,0-1.619.8A3.68,3.68,0,0,0,16.311-3.875ZM19.16-11.25H20.8L18.838-9.1l-1.091,0Zm5.984,3.325.044,1a2.888,2.888,0,0,1,2.373-1.143q2.512,0,2.534,2.834V0H28.74V-5.244a1.824,1.824,0,0,0-.392-1.267,1.57,1.57,0,0,0-1.2-.41,1.956,1.956,0,0,0-1.157.352,2.387,2.387,0,0,0-.776.923V0H23.862V-7.925Zm10.378,3.9a4.642,4.642,0,0,1,.864-2.933,2.733,2.733,0,0,1,2.263-1.11,2.748,2.748,0,0,1,2.2.952V-11.25h1.355V0H40.964L40.9-.85a2.759,2.759,0,0,1-2.263,1A2.707,2.707,0,0,1,36.39-.981a4.7,4.7,0,0,1-.868-2.944Zm1.355.154a3.515,3.515,0,0,0,.557,2.109A1.8,1.8,0,0,0,38.972-1a1.977,1.977,0,0,0,1.882-1.157V-5.8a1.992,1.992,0,0,0-1.868-1.121,1.808,1.808,0,0,0-1.553.769A3.87,3.87,0,0,0,36.877-3.875ZM47.6.146A3.463,3.463,0,0,1,44.978-.912a3.928,3.928,0,0,1-1.011-2.831v-.249a4.756,4.756,0,0,1,.45-2.106,3.514,3.514,0,0,1,1.26-1.45,3.167,3.167,0,0,1,1.754-.524,2.968,2.968,0,0,1,2.4,1.018,4.408,4.408,0,0,1,.857,2.915v.564H45.322a2.817,2.817,0,0,0,.685,1.893,2.153,2.153,0,0,0,1.666.721,2.36,2.36,0,0,0,1.216-.293,3.055,3.055,0,0,0,.872-.776l.828.645A3.328,3.328,0,0,1,47.6.146Zm-.168-7.1a1.807,1.807,0,0,0-1.377.6,2.9,2.9,0,0,0-.688,1.674h3.97v-.1a2.581,2.581,0,0,0-.557-1.6A1.7,1.7,0,0,0,47.432-6.958ZM-54.261,15.162-52.3,9.075h1.384L-53.756,17h-1.033L-57.66,9.075h1.384ZM-44.828,17a2.846,2.846,0,0,1-.19-.835,3.023,3.023,0,0,1-2.256.981,2.8,2.8,0,0,1-1.923-.663,2.145,2.145,0,0,1-.751-1.681,2.24,2.24,0,0,1,.941-1.923,4.437,4.437,0,0,1,2.648-.685h1.318v-.623a1.522,1.522,0,0,0-.425-1.132,1.707,1.707,0,0,0-1.252-.421,1.976,1.976,0,0,0-1.216.366,1.079,1.079,0,0,0-.491.886h-1.362a1.87,1.87,0,0,1,.421-1.146,2.874,2.874,0,0,1,1.143-.875,3.844,3.844,0,0,1,1.586-.322,3.133,3.133,0,0,1,2.146.685,2.47,2.47,0,0,1,.806,1.886v3.647a4.459,4.459,0,0,0,.278,1.736V17Zm-2.249-1.033a2.381,2.381,0,0,0,1.208-.33,1.994,1.994,0,0,0,.828-.857V13.155H-46.1q-2.49,0-2.49,1.458a1.234,1.234,0,0,0,.425,1A1.633,1.633,0,0,0-47.076,15.967ZM-40.089,17h-1.355V5.75h1.355Zm1.809-4.036a4.681,4.681,0,0,1,.458-2.095,3.415,3.415,0,0,1,1.274-1.436,3.469,3.469,0,0,1,1.864-.505,3.342,3.342,0,0,1,2.618,1.121,4.311,4.311,0,0,1,1,2.981v.1a4.722,4.722,0,0,1-.443,2.076,3.365,3.365,0,0,1-1.267,1.432,3.509,3.509,0,0,1-1.893.513,3.334,3.334,0,0,1-2.611-1.121,4.29,4.29,0,0,1-1-2.966Zm1.362.161a3.39,3.39,0,0,0,.612,2.117,1.957,1.957,0,0,0,1.637.8,1.945,1.945,0,0,0,1.641-.809,3.707,3.707,0,0,0,.608-2.267,3.384,3.384,0,0,0-.619-2.113,1.968,1.968,0,0,0-1.644-.809,1.946,1.946,0,0,0-1.619.8A3.68,3.68,0,0,0-36.918,13.125Zm11.382-2.834a4.06,4.06,0,0,0-.667-.051,1.786,1.786,0,0,0-1.809,1.135V17h-1.355V9.075h1.318l.022.916a2.11,2.11,0,0,1,1.89-1.062,1.384,1.384,0,0,1,.6.1ZM-21,17.146a3.463,3.463,0,0,1-2.622-1.058,3.928,3.928,0,0,1-1.011-2.831v-.249a4.756,4.756,0,0,1,.45-2.106,3.514,3.514,0,0,1,1.26-1.45,3.167,3.167,0,0,1,1.754-.524,2.968,2.968,0,0,1,2.4,1.018,4.408,4.408,0,0,1,.857,2.915v.564H-23.28a2.817,2.817,0,0,0,.685,1.893,2.153,2.153,0,0,0,1.666.721,2.36,2.36,0,0,0,1.216-.293,3.055,3.055,0,0,0,.872-.776l.828.645A3.328,3.328,0,0,1-21,17.146Zm-.168-7.1a1.807,1.807,0,0,0-1.377.6,2.9,2.9,0,0,0-.688,1.674h3.97v-.1a2.581,2.581,0,0,0-.557-1.6A1.7,1.7,0,0,0-21.171,10.042ZM-11.73,14.9a1,1,0,0,0-.414-.853,3.983,3.983,0,0,0-1.443-.524,6.822,6.822,0,0,1-1.633-.527,2.324,2.324,0,0,1-.894-.732A1.752,1.752,0,0,1-16.4,11.25,2.056,2.056,0,0,1-15.579,9.6a3.218,3.218,0,0,1,2.106-.674,3.311,3.311,0,0,1,2.186.7,2.21,2.21,0,0,1,.839,1.78H-11.81a1.223,1.223,0,0,0-.472-.959,1.77,1.77,0,0,0-1.19-.4,1.852,1.852,0,0,0-1.157.322,1.014,1.014,0,0,0-.417.842.822.822,0,0,0,.388.74,4.776,4.776,0,0,0,1.4.476,7.308,7.308,0,0,1,1.644.542,2.4,2.4,0,0,1,.934.758,1.864,1.864,0,0,1,.3,1.08,2.028,2.028,0,0,1-.85,1.7,3.564,3.564,0,0,1-2.2.641,3.991,3.991,0,0,1-1.685-.337,2.74,2.74,0,0,1-1.146-.941,2.268,2.268,0,0,1-.414-1.307h1.355a1.4,1.4,0,0,0,.546,1.08,2.117,2.117,0,0,0,1.344.4,2.185,2.185,0,0,0,1.234-.311A.956.956,0,0,0-11.73,14.9Zm9.426.117,1.846-5.94H.992l-3.186,9.148Q-2.933,20.2-4.545,20.2l-.256-.022-.505-.1v-1.1l.366.029a1.8,1.8,0,0,0,1.073-.278,2.014,2.014,0,0,0,.634-1.018l.3-.806L-5.76,9.075h1.479ZM10.529,14.9a1,1,0,0,0-.414-.853,3.983,3.983,0,0,0-1.443-.524,6.822,6.822,0,0,1-1.633-.527,2.324,2.324,0,0,1-.894-.732,1.752,1.752,0,0,1-.289-1.011A2.056,2.056,0,0,1,6.68,9.6a3.218,3.218,0,0,1,2.106-.674,3.311,3.311,0,0,1,2.186.7,2.21,2.21,0,0,1,.839,1.78H10.448a1.223,1.223,0,0,0-.472-.959,1.77,1.77,0,0,0-1.19-.4,1.852,1.852,0,0,0-1.157.322,1.014,1.014,0,0,0-.417.842.822.822,0,0,0,.388.74,4.776,4.776,0,0,0,1.4.476,7.308,7.308,0,0,1,1.644.542,2.4,2.4,0,0,1,.934.758,1.864,1.864,0,0,1,.3,1.08,2.028,2.028,0,0,1-.85,1.7,3.564,3.564,0,0,1-2.2.641,3.991,3.991,0,0,1-1.685-.337A2.74,2.74,0,0,1,6,15.868a2.268,2.268,0,0,1-.414-1.307H6.94a1.4,1.4,0,0,0,.546,1.08,2.117,2.117,0,0,0,1.344.4,2.185,2.185,0,0,0,1.234-.311A.956.956,0,0,0,10.529,14.9ZM18.541,17a2.846,2.846,0,0,1-.19-.835,3.023,3.023,0,0,1-2.256.981,2.8,2.8,0,0,1-1.923-.663,2.145,2.145,0,0,1-.751-1.681,2.24,2.24,0,0,1,.941-1.923A4.437,4.437,0,0,1,17.01,12.2h1.318v-.623a1.522,1.522,0,0,0-.425-1.132,1.707,1.707,0,0,0-1.252-.421,1.976,1.976,0,0,0-1.216.366,1.079,1.079,0,0,0-.491.886H13.583A1.87,1.87,0,0,1,14,10.126a2.874,2.874,0,0,1,1.143-.875,3.844,3.844,0,0,1,1.586-.322,3.133,3.133,0,0,1,2.146.685,2.47,2.47,0,0,1,.806,1.886v3.647a4.459,4.459,0,0,0,.278,1.736V17Zm-2.249-1.033a2.381,2.381,0,0,0,1.208-.33,1.994,1.994,0,0,0,.828-.857V13.155H17.267q-2.49,0-2.49,1.458a1.234,1.234,0,0,0,.425,1A1.633,1.633,0,0,0,16.293,15.967Zm12.224-2.842a4.712,4.712,0,0,1-.835,2.919,2.668,2.668,0,0,1-2.241,1.1,2.763,2.763,0,0,1-2.322-1.062L23.053,17H21.808V5.75h1.355v4.2a2.747,2.747,0,0,1,2.263-1.018,2.684,2.684,0,0,1,2.267,1.091,4.853,4.853,0,0,1,.824,2.988Zm-1.355-.154a3.662,3.662,0,0,0-.535-2.139,1.77,1.77,0,0,0-1.538-.754,1.989,1.989,0,0,0-1.926,1.245v3.428A2.045,2.045,0,0,0,25.1,16a1.76,1.76,0,0,0,1.516-.754A3.894,3.894,0,0,0,27.162,12.972Zm6.35,4.175a3.463,3.463,0,0,1-2.622-1.058,3.928,3.928,0,0,1-1.011-2.831v-.249a4.756,4.756,0,0,1,.45-2.106,3.514,3.514,0,0,1,1.26-1.45,3.167,3.167,0,0,1,1.754-.524,2.968,2.968,0,0,1,2.4,1.018,4.408,4.408,0,0,1,.857,2.915v.564H31.234a2.817,2.817,0,0,0,.685,1.893,2.153,2.153,0,0,0,1.666.721,2.36,2.36,0,0,0,1.216-.293,3.055,3.055,0,0,0,.872-.776l.828.645A3.328,3.328,0,0,1,33.512,17.146Zm-.168-7.1a1.807,1.807,0,0,0-1.377.6,2.9,2.9,0,0,0-.688,1.674h3.97v-.1a2.581,2.581,0,0,0-.557-1.6A1.7,1.7,0,0,0,33.344,10.042ZM42,10.291a4.06,4.06,0,0,0-.667-.051,1.786,1.786,0,0,0-1.809,1.135V17H38.17V9.075h1.318l.022.916A2.11,2.11,0,0,1,41.4,8.929a1.384,1.384,0,0,1,.6.1Zm4.534,6.855a3.463,3.463,0,0,1-2.622-1.058A3.928,3.928,0,0,1,42.9,13.257v-.249a4.756,4.756,0,0,1,.45-2.106,3.514,3.514,0,0,1,1.26-1.45,3.167,3.167,0,0,1,1.754-.524,2.968,2.968,0,0,1,2.4,1.018,4.408,4.408,0,0,1,.857,2.915v.564H44.257a2.817,2.817,0,0,0,.685,1.893,2.153,2.153,0,0,0,1.666.721,2.36,2.36,0,0,0,1.216-.293,3.055,3.055,0,0,0,.872-.776l.828.645A3.328,3.328,0,0,1,46.534,17.146Zm-.168-7.1a1.807,1.807,0,0,0-1.377.6,2.9,2.9,0,0,0-.688,1.674h3.97v-.1a2.581,2.581,0,0,0-.557-1.6A1.7,1.7,0,0,0,46.366,10.042ZM55.807,14.9a1,1,0,0,0-.414-.853,3.983,3.983,0,0,0-1.443-.524,6.822,6.822,0,0,1-1.633-.527,2.324,2.324,0,0,1-.894-.732,1.752,1.752,0,0,1-.289-1.011A2.056,2.056,0,0,1,51.958,9.6a3.218,3.218,0,0,1,2.106-.674,3.311,3.311,0,0,1,2.186.7,2.21,2.21,0,0,1,.839,1.78H55.726a1.223,1.223,0,0,0-.472-.959,1.77,1.77,0,0,0-1.19-.4,1.852,1.852,0,0,0-1.157.322,1.014,1.014,0,0,0-.417.842.822.822,0,0,0,.388.74,4.776,4.776,0,0,0,1.4.476,7.308,7.308,0,0,1,1.644.542,2.4,2.4,0,0,1,.934.758,1.864,1.864,0,0,1,.3,1.08,2.028,2.028,0,0,1-.85,1.7,3.564,3.564,0,0,1-2.2.641,3.991,3.991,0,0,1-1.685-.337,2.74,2.74,0,0,1-1.146-.941,2.268,2.268,0,0,1-.414-1.307h1.355a1.4,1.4,0,0,0,.546,1.08,2.117,2.117,0,0,0,1.344.4,2.185,2.185,0,0,0,1.234-.311A.956.956,0,0,0,55.807,14.9Zm-84.2,18.143a1.952,1.952,0,0,0,1.267-.439,1.546,1.546,0,0,0,.6-1.1h1.282a2.457,2.457,0,0,1-.469,1.3,3.087,3.087,0,0,1-1.154.981,3.329,3.329,0,0,1-1.527.366,3.265,3.265,0,0,1-2.574-1.08,4.3,4.3,0,0,1-.956-2.955v-.227a4.771,4.771,0,0,1,.425-2.058,3.236,3.236,0,0,1,1.219-1.4,3.464,3.464,0,0,1,1.879-.5,3.178,3.178,0,0,1,2.216.8,2.853,2.853,0,0,1,.941,2.073h-1.282a1.867,1.867,0,0,0-.582-1.263,1.811,1.811,0,0,0-1.293-.494,1.9,1.9,0,0,0-1.6.743,3.491,3.491,0,0,0-.568,2.15v.256A3.422,3.422,0,0,0-30,32.3,1.906,1.906,0,0,0-28.392,33.041Zm9.565.176a2.878,2.878,0,0,1-2.322.93,2.464,2.464,0,0,1-1.93-.736,3.186,3.186,0,0,1-.67-2.179V26.075h1.355v5.12q0,1.8,1.465,1.8a2.028,2.028,0,0,0,2.065-1.157V26.075h1.355V34H-18.8Zm4.849.784h-1.355V22.75h1.355Zm4.006-9.844v1.919h1.479v1.047H-9.972v4.921a1.1,1.1,0,0,0,.2.715A.832.832,0,0,0-9.1,33a3.281,3.281,0,0,0,.645-.088V34a3.951,3.951,0,0,1-1.04.146,1.687,1.687,0,0,1-1.37-.549,2.36,2.36,0,0,1-.461-1.56V27.123H-12.77V26.075h1.443V24.156Zm7.954,9.06a2.878,2.878,0,0,1-2.322.93,2.464,2.464,0,0,1-1.93-.736,3.186,3.186,0,0,1-.67-2.179V26.075h1.355v5.12q0,1.8,1.465,1.8a2.028,2.028,0,0,0,2.065-1.157V26.075H-.7V34H-1.989Zm7.207-5.925a4.06,4.06,0,0,0-.667-.051,1.786,1.786,0,0,0-1.809,1.135V34H1.359V26.075H2.677l.022.916a2.11,2.11,0,0,1,1.89-1.062,1.384,1.384,0,0,1,.6.1ZM11.034,34a2.846,2.846,0,0,1-.19-.835,3.023,3.023,0,0,1-2.256.981,2.8,2.8,0,0,1-1.923-.663A2.145,2.145,0,0,1,5.914,31.8a2.24,2.24,0,0,1,.941-1.923A4.437,4.437,0,0,1,9.5,29.2h1.318v-.623a1.522,1.522,0,0,0-.425-1.132,1.707,1.707,0,0,0-1.252-.421,1.976,1.976,0,0,0-1.216.366,1.079,1.079,0,0,0-.491.886H6.075A1.87,1.87,0,0,1,6.5,27.126a2.874,2.874,0,0,1,1.143-.875,3.844,3.844,0,0,1,1.586-.322,3.133,3.133,0,0,1,2.146.685,2.47,2.47,0,0,1,.806,1.886v3.647a4.459,4.459,0,0,0,.278,1.736V34ZM8.785,32.967a2.381,2.381,0,0,0,1.208-.33,1.994,1.994,0,0,0,.828-.857V30.155H9.76q-2.49,0-2.49,1.458a1.234,1.234,0,0,0,.425,1A1.633,1.633,0,0,0,8.785,32.967ZM15.773,34H14.418V22.75h1.355Zm5.457.146a3.463,3.463,0,0,1-2.622-1.058A3.928,3.928,0,0,1,17.6,30.257v-.249a4.756,4.756,0,0,1,.45-2.106,3.514,3.514,0,0,1,1.26-1.45,3.167,3.167,0,0,1,1.754-.524,2.968,2.968,0,0,1,2.4,1.018,4.408,4.408,0,0,1,.857,2.915v.564H18.951a2.817,2.817,0,0,0,.685,1.893,2.153,2.153,0,0,0,1.666.721,2.36,2.36,0,0,0,1.216-.293,3.055,3.055,0,0,0,.872-.776l.828.645A3.328,3.328,0,0,1,21.229,34.146Zm-.168-7.1a1.807,1.807,0,0,0-1.377.6A2.9,2.9,0,0,0,19,29.313h3.97v-.1a2.581,2.581,0,0,0-.557-1.6A1.7,1.7,0,0,0,21.061,27.042ZM30.5,31.9a1,1,0,0,0-.414-.853,3.983,3.983,0,0,0-1.443-.524,6.822,6.822,0,0,1-1.633-.527,2.324,2.324,0,0,1-.894-.732,1.752,1.752,0,0,1-.289-1.011,2.056,2.056,0,0,1,.824-1.648,3.218,3.218,0,0,1,2.106-.674,3.311,3.311,0,0,1,2.186.7,2.21,2.21,0,0,1,.839,1.78H30.421a1.223,1.223,0,0,0-.472-.959,1.77,1.77,0,0,0-1.19-.4,1.852,1.852,0,0,0-1.157.322,1.014,1.014,0,0,0-.417.842.822.822,0,0,0,.388.74,4.776,4.776,0,0,0,1.4.476,7.308,7.308,0,0,1,1.644.542,2.4,2.4,0,0,1,.934.758,1.864,1.864,0,0,1,.3,1.08,2.028,2.028,0,0,1-.85,1.7,3.564,3.564,0,0,1-2.2.641,3.991,3.991,0,0,1-1.685-.337,2.74,2.74,0,0,1-1.146-.941,2.268,2.268,0,0,1-.414-1.307h1.355a1.4,1.4,0,0,0,.546,1.08,2.117,2.117,0,0,0,1.344.4,2.185,2.185,0,0,0,1.234-.311A.956.956,0,0,0,30.5,31.9Z" transform="translate(407.314 7931.911)" fill="#12263f"/>
    <path id="Trazado_813836" data-name="Trazado 813836" d="M-30.2-4.709h-4.475V0h-1.406V-10.664h6.606v1.15h-5.2v3.655H-30.2Zm1.685.674a4.681,4.681,0,0,1,.458-2.095,3.415,3.415,0,0,1,1.274-1.436,3.469,3.469,0,0,1,1.864-.505A3.342,3.342,0,0,1-22.3-6.951a4.311,4.311,0,0,1,1,2.981v.1A4.722,4.722,0,0,1-21.746-1.8,3.365,3.365,0,0,1-23.013-.366a3.509,3.509,0,0,1-1.893.513A3.334,3.334,0,0,1-27.517-.974a4.29,4.29,0,0,1-1-2.966Zm1.362.161a3.39,3.39,0,0,0,.612,2.117,1.957,1.957,0,0,0,1.637.8,1.945,1.945,0,0,0,1.641-.809,3.707,3.707,0,0,0,.608-2.267,3.384,3.384,0,0,0-.619-2.113,1.968,1.968,0,0,0-1.644-.809,1.946,1.946,0,0,0-1.619.8A3.68,3.68,0,0,0-27.155-3.875Zm11.382-2.834a4.061,4.061,0,0,0-.667-.051,1.786,1.786,0,0,0-1.809,1.135V0H-19.6V-7.925h1.318l.022.916a2.11,2.11,0,0,1,1.89-1.062,1.384,1.384,0,0,1,.6.1Zm2.52-1.216.037.879a2.927,2.927,0,0,1,2.351-1.025A2.266,2.266,0,0,1-8.6-6.8,3,3,0,0,1-7.573-7.72a3.039,3.039,0,0,1,1.5-.352q2.607,0,2.651,2.761V0H-4.779V-5.229A1.82,1.82,0,0,0-5.167-6.5a1.71,1.71,0,0,0-1.3-.421,1.8,1.8,0,0,0-1.252.45A1.827,1.827,0,0,0-8.3-5.259V0H-9.664V-5.193a1.512,1.512,0,0,0-1.692-1.729A1.813,1.813,0,0,0-13.18-5.786V0h-1.355V-7.925ZM3.512,0a2.846,2.846,0,0,1-.19-.835A3.023,3.023,0,0,1,1.066.146,2.8,2.8,0,0,1-.857-.516,2.145,2.145,0,0,1-1.608-2.2,2.24,2.24,0,0,1-.667-4.12,4.437,4.437,0,0,1,1.981-4.8H3.3v-.623a1.522,1.522,0,0,0-.425-1.132A1.707,1.707,0,0,0,1.622-6.98a1.976,1.976,0,0,0-1.216.366,1.079,1.079,0,0,0-.491.886H-1.447a1.87,1.87,0,0,1,.421-1.146A2.874,2.874,0,0,1,.117-7.749,3.844,3.844,0,0,1,1.7-8.071a3.133,3.133,0,0,1,2.146.685A2.47,2.47,0,0,1,4.655-5.5v3.647A4.459,4.459,0,0,0,4.933-.117V0ZM1.263-1.033a2.381,2.381,0,0,0,1.208-.33A1.994,1.994,0,0,0,3.3-2.219V-3.845H2.238q-2.49,0-2.49,1.458a1.234,1.234,0,0,0,.425,1A1.633,1.633,0,0,0,1.263-1.033ZM11.393-2.1a1,1,0,0,0-.414-.853,3.983,3.983,0,0,0-1.443-.524A6.822,6.822,0,0,1,7.9-4.006a2.324,2.324,0,0,1-.894-.732A1.752,1.752,0,0,1,6.72-5.75,2.056,2.056,0,0,1,7.544-7.4,3.218,3.218,0,0,1,9.65-8.071a3.311,3.311,0,0,1,2.186.7,2.21,2.21,0,0,1,.839,1.78H11.312a1.223,1.223,0,0,0-.472-.959,1.77,1.77,0,0,0-1.19-.4,1.852,1.852,0,0,0-1.157.322,1.014,1.014,0,0,0-.417.842.822.822,0,0,0,.388.74,4.776,4.776,0,0,0,1.4.476,7.308,7.308,0,0,1,1.644.542,2.4,2.4,0,0,1,.934.758,1.864,1.864,0,0,1,.3,1.08,2.028,2.028,0,0,1-.85,1.7,3.564,3.564,0,0,1-2.2.641A3.991,3.991,0,0,1,8.009-.19a2.74,2.74,0,0,1-1.146-.941,2.268,2.268,0,0,1-.414-1.307H7.8a1.4,1.4,0,0,0,.546,1.08,2.117,2.117,0,0,0,1.344.4,2.185,2.185,0,0,0,1.234-.311A.956.956,0,0,0,11.393-2.1Zm6.5-1.926a4.642,4.642,0,0,1,.864-2.933,2.733,2.733,0,0,1,2.263-1.11,2.748,2.748,0,0,1,2.2.952V-11.25h1.355V0H23.339l-.066-.85a2.759,2.759,0,0,1-2.263,1A2.707,2.707,0,0,1,18.765-.981,4.7,4.7,0,0,1,17.9-3.926Zm1.355.154a3.515,3.515,0,0,0,.557,2.109A1.8,1.8,0,0,0,21.346-1a1.977,1.977,0,0,0,1.882-1.157V-5.8a1.992,1.992,0,0,0-1.868-1.121,1.808,1.808,0,0,0-1.553.769A3.87,3.87,0,0,0,19.252-3.875ZM29.974.146A3.463,3.463,0,0,1,27.352-.912a3.928,3.928,0,0,1-1.011-2.831v-.249a4.756,4.756,0,0,1,.45-2.106,3.514,3.514,0,0,1,1.26-1.45,3.167,3.167,0,0,1,1.754-.524,2.968,2.968,0,0,1,2.4,1.018,4.408,4.408,0,0,1,.857,2.915v.564H27.7a2.817,2.817,0,0,0,.685,1.893,2.153,2.153,0,0,0,1.666.721,2.36,2.36,0,0,0,1.216-.293,3.055,3.055,0,0,0,.872-.776l.828.645A3.328,3.328,0,0,1,29.974.146Zm-.168-7.1a1.807,1.807,0,0,0-1.377.6,2.9,2.9,0,0,0-.688,1.674h3.97v-.1a2.581,2.581,0,0,0-.557-1.6A1.7,1.7,0,0,0,29.806-6.958Zm-72.638,23a1.952,1.952,0,0,0,1.267-.439,1.546,1.546,0,0,0,.6-1.1h1.282a2.457,2.457,0,0,1-.469,1.3,3.087,3.087,0,0,1-1.154.981,3.329,3.329,0,0,1-1.527.366,3.265,3.265,0,0,1-2.574-1.08,4.3,4.3,0,0,1-.956-2.955v-.227a4.771,4.771,0,0,1,.425-2.058,3.236,3.236,0,0,1,1.219-1.4,3.464,3.464,0,0,1,1.879-.5,3.178,3.178,0,0,1,2.216.8,2.853,2.853,0,0,1,.941,2.073h-1.282a1.867,1.867,0,0,0-.582-1.263,1.811,1.811,0,0,0-1.293-.494,1.9,1.9,0,0,0-1.6.743,3.491,3.491,0,0,0-.568,2.15v.256a3.422,3.422,0,0,0,.564,2.109A1.906,1.906,0,0,0-42.832,16.041Zm4.314-3.076a4.681,4.681,0,0,1,.458-2.095,3.415,3.415,0,0,1,1.274-1.436,3.469,3.469,0,0,1,1.864-.505A3.342,3.342,0,0,1-32.3,10.049a4.311,4.311,0,0,1,1,2.981v.1a4.722,4.722,0,0,1-.443,2.076,3.365,3.365,0,0,1-1.267,1.432,3.509,3.509,0,0,1-1.893.513,3.334,3.334,0,0,1-2.611-1.121,4.29,4.29,0,0,1-1-2.966Zm1.362.161a3.39,3.39,0,0,0,.612,2.117,1.957,1.957,0,0,0,1.637.8,1.945,1.945,0,0,0,1.641-.809,3.707,3.707,0,0,0,.608-2.267,3.384,3.384,0,0,0-.619-2.113,1.968,1.968,0,0,0-1.644-.809,1.946,1.946,0,0,0-1.619.8A3.68,3.68,0,0,0-37.156,13.125Zm8.826-4.05.037.879a2.927,2.927,0,0,1,2.351-1.025A2.266,2.266,0,0,1-23.679,10.2,3,3,0,0,1-22.65,9.28a3.039,3.039,0,0,1,1.5-.352q2.607,0,2.651,2.761V17h-1.355V11.771a1.82,1.82,0,0,0-.388-1.271,1.71,1.71,0,0,0-1.3-.421,1.8,1.8,0,0,0-1.252.45,1.827,1.827,0,0,0-.579,1.212V17h-1.362V11.807a1.512,1.512,0,0,0-1.692-1.729,1.813,1.813,0,0,0-1.824,1.135V17h-1.355V9.075Zm16.765,7.141a2.878,2.878,0,0,1-2.322.93,2.464,2.464,0,0,1-1.93-.736,3.186,3.186,0,0,1-.67-2.179V9.075h1.355v5.12q0,1.8,1.465,1.8A2.028,2.028,0,0,0-11.6,14.839V9.075h1.355V17h-1.289Zm4.658-7.141.044,1A2.888,2.888,0,0,1-4.49,8.929q2.512,0,2.534,2.834V17H-3.311V11.756A1.824,1.824,0,0,0-3.7,10.489a1.57,1.57,0,0,0-1.2-.41,1.956,1.956,0,0,0-1.157.352,2.387,2.387,0,0,0-.776.923V17H-8.188V9.075ZM1.56,17H.205V9.075H1.56ZM.1,6.973a.809.809,0,0,1,.2-.557.756.756,0,0,1,.6-.227.768.768,0,0,1,.6.227.8.8,0,0,1,.205.557.774.774,0,0,1-.205.549.782.782,0,0,1-.6.22.77.77,0,0,1-.6-.22A.782.782,0,0,1,.1,6.973Zm6.812,9.067A1.952,1.952,0,0,0,8.174,15.6a1.546,1.546,0,0,0,.6-1.1h1.282a2.457,2.457,0,0,1-.469,1.3,3.087,3.087,0,0,1-1.154.981,3.329,3.329,0,0,1-1.527.366,3.265,3.265,0,0,1-2.574-1.08,4.3,4.3,0,0,1-.956-2.955v-.227A4.771,4.771,0,0,1,3.8,10.826a3.236,3.236,0,0,1,1.219-1.4,3.464,3.464,0,0,1,1.879-.5,3.178,3.178,0,0,1,2.216.8,2.853,2.853,0,0,1,.941,2.073H8.774a1.867,1.867,0,0,0-.582-1.263A1.811,1.811,0,0,0,6.9,10.042a1.9,1.9,0,0,0-1.6.743,3.491,3.491,0,0,0-.568,2.15v.256A3.422,3.422,0,0,0,5.3,15.3,1.906,1.906,0,0,0,6.907,16.041ZM16.472,17a2.846,2.846,0,0,1-.19-.835,3.023,3.023,0,0,1-2.256.981,2.8,2.8,0,0,1-1.923-.663,2.145,2.145,0,0,1-.751-1.681,2.24,2.24,0,0,1,.941-1.923,4.437,4.437,0,0,1,2.648-.685H16.26v-.623a1.522,1.522,0,0,0-.425-1.132,1.707,1.707,0,0,0-1.252-.421,1.976,1.976,0,0,0-1.216.366,1.079,1.079,0,0,0-.491.886H11.514a1.87,1.87,0,0,1,.421-1.146,2.874,2.874,0,0,1,1.143-.875,3.844,3.844,0,0,1,1.586-.322,3.133,3.133,0,0,1,2.146.685,2.47,2.47,0,0,1,.806,1.886v3.647a4.459,4.459,0,0,0,.278,1.736V17Zm-2.249-1.033a2.381,2.381,0,0,0,1.208-.33,1.994,1.994,0,0,0,.828-.857V13.155H15.2q-2.49,0-2.49,1.458a1.234,1.234,0,0,0,.425,1A1.633,1.633,0,0,0,14.224,15.967Zm8.694.073a1.952,1.952,0,0,0,1.267-.439,1.546,1.546,0,0,0,.6-1.1h1.282a2.457,2.457,0,0,1-.469,1.3,3.087,3.087,0,0,1-1.154.981,3.329,3.329,0,0,1-1.527.366,3.265,3.265,0,0,1-2.574-1.08,4.3,4.3,0,0,1-.956-2.955v-.227a4.771,4.771,0,0,1,.425-2.058,3.236,3.236,0,0,1,1.219-1.4,3.464,3.464,0,0,1,1.879-.5,3.178,3.178,0,0,1,2.216.8,2.853,2.853,0,0,1,.941,2.073H24.785a1.867,1.867,0,0,0-.582-1.263,1.811,1.811,0,0,0-1.293-.494,1.9,1.9,0,0,0-1.6.743,3.491,3.491,0,0,0-.568,2.15v.256a3.422,3.422,0,0,0,.564,2.109A1.906,1.906,0,0,0,22.917,16.041ZM29.063,17H27.708V9.075h1.355ZM27.6,6.973a.809.809,0,0,1,.2-.557.756.756,0,0,1,.6-.227.768.768,0,0,1,.6.227.8.8,0,0,1,.205.557A.774.774,0,0,1,29,7.522a.782.782,0,0,1-.6.22.77.77,0,0,1-.6-.22A.782.782,0,0,1,27.6,6.973Zm3.274,5.991a4.681,4.681,0,0,1,.458-2.095A3.415,3.415,0,0,1,32.6,9.434a3.469,3.469,0,0,1,1.864-.505,3.342,3.342,0,0,1,2.618,1.121,4.311,4.311,0,0,1,1,2.981v.1a4.722,4.722,0,0,1-.443,2.076,3.365,3.365,0,0,1-1.267,1.432,3.509,3.509,0,0,1-1.893.513,3.334,3.334,0,0,1-2.611-1.121,4.29,4.29,0,0,1-1-2.966Zm1.362.161a3.39,3.39,0,0,0,.612,2.117,2.072,2.072,0,0,0,3.278-.011,3.707,3.707,0,0,0,.608-2.267,3.384,3.384,0,0,0-.619-2.113,1.968,1.968,0,0,0-1.644-.809,1.946,1.946,0,0,0-1.619.8A3.68,3.68,0,0,0,32.234,13.125ZM35.083,5.75h1.641L34.761,7.9l-1.091,0Zm5.984,3.325.044,1a2.888,2.888,0,0,1,2.373-1.143q2.512,0,2.534,2.834V17H44.663V11.756a1.824,1.824,0,0,0-.392-1.267,1.57,1.57,0,0,0-1.2-.41,1.956,1.956,0,0,0-1.157.352,2.387,2.387,0,0,0-.776.923V17H39.785V9.075Zm-72.982,22.94,1.846-5.94h1.45l-3.186,9.148q-.74,1.978-2.351,1.978l-.256-.022-.505-.1v-1.1l.366.029a1.8,1.8,0,0,0,1.073-.278,2.014,2.014,0,0,0,.634-1.018l.3-.806-2.827-7.837h1.479ZM-22.225,34H-23.58V22.75h1.355Zm5.457.146a3.463,3.463,0,0,1-2.622-1.058A3.928,3.928,0,0,1-20.4,30.257v-.249a4.756,4.756,0,0,1,.45-2.106,3.514,3.514,0,0,1,1.26-1.45,3.167,3.167,0,0,1,1.754-.524,2.968,2.968,0,0,1,2.4,1.018,4.408,4.408,0,0,1,.857,2.915v.564h-5.369a2.817,2.817,0,0,0,.685,1.893,2.153,2.153,0,0,0,1.666.721,2.36,2.36,0,0,0,1.216-.293,3.055,3.055,0,0,0,.872-.776l.828.645A3.328,3.328,0,0,1-16.769,34.146Zm-.168-7.1a1.807,1.807,0,0,0-1.377.6A2.9,2.9,0,0,0-19,29.313h3.97v-.1a2.581,2.581,0,0,0-.557-1.6A1.7,1.7,0,0,0-16.937,27.042Zm6.108-.967.044,1a2.888,2.888,0,0,1,2.373-1.143q2.512,0,2.534,2.834V34H-7.233V28.756a1.824,1.824,0,0,0-.392-1.267,1.57,1.57,0,0,0-1.2-.41,1.956,1.956,0,0,0-1.157.352,2.387,2.387,0,0,0-.776.923V34h-1.355V26.075Zm6.672,3.9A4.658,4.658,0,0,1-3.3,27.024a2.741,2.741,0,0,1,2.271-1.095,2.726,2.726,0,0,1,2.263,1.025l.066-.879H2.538V33.81a3.224,3.224,0,0,1-.912,2.424,3.365,3.365,0,0,1-2.45.886A4.076,4.076,0,0,1-2.5,36.754a2.887,2.887,0,0,1-1.252-1l.7-.813A2.65,2.65,0,0,0-.919,36.014a2.076,2.076,0,0,0,1.542-.557,2.128,2.128,0,0,0,.553-1.567v-.681a2.785,2.785,0,0,1-2.219.938A2.707,2.707,0,0,1-3.3,33.026,4.9,4.9,0,0,1-4.156,29.972Zm1.362.154a3.553,3.553,0,0,0,.549,2.106A1.785,1.785,0,0,0-.707,33a1.985,1.985,0,0,0,1.882-1.165V28.214A2.008,2.008,0,0,0-.692,27.079a1.8,1.8,0,0,0-1.545.769A3.87,3.87,0,0,0-2.794,30.125ZM9.474,33.216a2.878,2.878,0,0,1-2.322.93,2.464,2.464,0,0,1-1.93-.736,3.186,3.186,0,0,1-.67-2.179V26.075H5.907v5.12q0,1.8,1.465,1.8a2.028,2.028,0,0,0,2.065-1.157V26.075h1.355V34H9.5ZM17.743,34a2.846,2.846,0,0,1-.19-.835,3.023,3.023,0,0,1-2.256.981,2.8,2.8,0,0,1-1.923-.663,2.145,2.145,0,0,1-.751-1.681,2.24,2.24,0,0,1,.941-1.923,4.437,4.437,0,0,1,2.648-.685h1.318v-.623a1.522,1.522,0,0,0-.425-1.132,1.707,1.707,0,0,0-1.252-.421,1.976,1.976,0,0,0-1.216.366,1.079,1.079,0,0,0-.491.886H12.784a1.87,1.87,0,0,1,.421-1.146,2.874,2.874,0,0,1,1.143-.875,3.844,3.844,0,0,1,1.586-.322,3.133,3.133,0,0,1,2.146.685,2.47,2.47,0,0,1,.806,1.886v3.647a4.459,4.459,0,0,0,.278,1.736V34Zm-2.249-1.033a2.381,2.381,0,0,0,1.208-.33,1.994,1.994,0,0,0,.828-.857V30.155H16.469q-2.49,0-2.49,1.458a1.234,1.234,0,0,0,.425,1A1.633,1.633,0,0,0,15.494,32.967Zm6.914-6.892v8.84q0,2.285-2.073,2.285a2.528,2.528,0,0,1-.828-.131V35.992a2.62,2.62,0,0,0,.615.059.921.921,0,0,0,.692-.246,1.214,1.214,0,0,0,.238-.854V26.075Zm-1.494-2.1a.812.812,0,0,1,.2-.553.741.741,0,0,1,.59-.231.768.768,0,0,1,.6.227.8.8,0,0,1,.205.557.774.774,0,0,1-.205.549.782.782,0,0,1-.6.22.758.758,0,0,1-.593-.22A.791.791,0,0,1,20.914,23.973ZM27.88,34.146a3.463,3.463,0,0,1-2.622-1.058,3.928,3.928,0,0,1-1.011-2.831v-.249A4.756,4.756,0,0,1,24.7,27.9a3.514,3.514,0,0,1,1.26-1.45,3.167,3.167,0,0,1,1.754-.524,2.968,2.968,0,0,1,2.4,1.018,4.408,4.408,0,0,1,.857,2.915v.564H25.6a2.817,2.817,0,0,0,.685,1.893,2.153,2.153,0,0,0,1.666.721,2.36,2.36,0,0,0,1.216-.293,3.055,3.055,0,0,0,.872-.776l.828.645A3.328,3.328,0,0,1,27.88,34.146Zm-.168-7.1a1.807,1.807,0,0,0-1.377.6,2.9,2.9,0,0,0-.688,1.674h3.97v-.1a2.581,2.581,0,0,0-.557-1.6A1.7,1.7,0,0,0,27.711,27.042ZM37.152,31.9a1,1,0,0,0-.414-.853,3.983,3.983,0,0,0-1.443-.524,6.822,6.822,0,0,1-1.633-.527,2.324,2.324,0,0,1-.894-.732,1.752,1.752,0,0,1-.289-1.011A2.056,2.056,0,0,1,33.3,26.6a3.218,3.218,0,0,1,2.106-.674,3.311,3.311,0,0,1,2.186.7,2.21,2.21,0,0,1,.839,1.78H37.072a1.223,1.223,0,0,0-.472-.959,1.77,1.77,0,0,0-1.19-.4,1.852,1.852,0,0,0-1.157.322,1.014,1.014,0,0,0-.417.842.822.822,0,0,0,.388.74,4.776,4.776,0,0,0,1.4.476,7.308,7.308,0,0,1,1.644.542,2.4,2.4,0,0,1,.934.758,1.864,1.864,0,0,1,.3,1.08,2.028,2.028,0,0,1-.85,1.7,3.564,3.564,0,0,1-2.2.641,3.991,3.991,0,0,1-1.685-.337,2.74,2.74,0,0,1-1.146-.941,2.268,2.268,0,0,1-.414-1.307h1.355a1.4,1.4,0,0,0,.546,1.08,2.117,2.117,0,0,0,1.344.4,2.185,2.185,0,0,0,1.234-.311A.956.956,0,0,0,37.152,31.9Z" transform="translate(345.314 7809.584)" fill="#12263f"/>
  </g>
</svg>
