<svg xmlns="http://www.w3.org/2000/svg" width="94" height="78" viewBox="0 0 94 78">
  <g id="Grupo_1067432" data-name="Grupo 1067432" transform="translate(-304 -5115.66)">
    <g id="Grupo_1065356" data-name="Grupo 1065356" transform="translate(83 -4429.34)">
      <path id="Trazado_810011" data-name="Trazado 810011" d="M26,0A26,26,0,1,1,0,26,26,26,0,0,1,26,0Z" transform="translate(263 9571)" fill="#f5d38f"/>
      <circle id="Elipse_4843" data-name="Elipse 4843" cx="18.5" cy="18.5" r="18.5" transform="translate(221 9545)" fill="#afcdf5"/>
    </g>
    <g id="dominio" transform="translate(305.808 5076.826)">
      <circle id="Elipse_9017" data-name="Elipse 9017" cx="31.855" cy="31.855" r="31.855" transform="translate(13.336 45.979)" fill="#8296e1"/>
      <path id="Trazado_813307" data-name="Trazado 813307" d="M108.952,169.232a31.855,31.855,0,0,0,47.432-42.321" transform="translate(-86.064 -68.656)" fill="none" stroke="#000" stroke-linecap="round" stroke-linejoin="round" stroke-miterlimit="10" stroke-width="1.5"/>
      <path id="Trazado_813308" data-name="Trazado 813308" d="M100.011,54.969A31.854,31.854,0,0,0,52.577,97.246" transform="translate(-32.643 0)" fill="none" stroke="#000" stroke-linecap="round" stroke-linejoin="round" stroke-miterlimit="10" stroke-width="1.5"/>
      <ellipse id="Elipse_9018" data-name="Elipse 9018" cx="31.855" cy="15.007" rx="31.855" ry="15.007" transform="translate(13.336 62.827)" fill="#6380dc"/>
      <ellipse id="Elipse_9019" data-name="Elipse 9019" cx="31.855" cy="15.007" rx="31.855" ry="15.007" transform="translate(13.336 62.827)" fill="none" stroke="#000" stroke-linecap="round" stroke-linejoin="round" stroke-miterlimit="10" stroke-width="1.5"/>
      <ellipse id="Elipse_9020" data-name="Elipse 9020" cx="16.595" cy="31.855" rx="16.595" ry="31.855" transform="translate(28.597 45.979)" fill="none" stroke="#000" stroke-linecap="round" stroke-linejoin="round" stroke-miterlimit="10" stroke-width="1.5"/>
      <path id="Trazado_813309" data-name="Trazado 813309" d="M81.557,217.436H8.826A1.326,1.326,0,0,1,7.5,216.11v-14.14a1.326,1.326,0,0,1,1.326-1.326H81.557a1.326,1.326,0,0,1,1.326,1.326v14.14A1.326,1.326,0,0,1,81.557,217.436Z" transform="translate(0 -131.205)" fill="#fbf7f7"/>
      <path id="Trazado_813310" data-name="Trazado 813310" d="M472.427,200.642h-4.171a1.326,1.326,0,0,1,1.326,1.326v14.14a1.326,1.326,0,0,1-1.326,1.326h4.171a1.326,1.326,0,0,0,1.326-1.326v-14.14A1.326,1.326,0,0,0,472.427,200.642Z" transform="translate(-390.87 -131.204)" fill="#f0eef0"/>
      <g id="Grupo_1067435" data-name="Grupo 1067435" transform="translate(24.159 73.804)">
        <g id="Grupo_1067432-2" data-name="Grupo 1067432" transform="translate(0)">
          <path id="Trazado_813311" data-name="Trazado 813311" d="M117.333,229.427l1.571,7.94a.182.182,0,0,0,.344,0l2.452-7.923" transform="translate(-117.333 -229.427)" fill="none" stroke="#000" stroke-linecap="round" stroke-linejoin="round" stroke-miterlimit="10" stroke-width="1.5"/>
          <path id="Trazado_813312" data-name="Trazado 813312" d="M146.122,229.427l2.446,7.94a.182.182,0,0,0,.344,0l1.577-7.923" transform="translate(-141.755 -229.427)" fill="none" stroke="#000" stroke-linecap="round" stroke-linejoin="round" stroke-miterlimit="10" stroke-width="1.5"/>
        </g>
        <g id="Grupo_1067433" data-name="Grupo 1067433" transform="translate(16.666)">
          <path id="Trazado_813313" data-name="Trazado 813313" d="M227.211,229.427l1.571,7.94a.182.182,0,0,0,.344,0l2.452-7.923" transform="translate(-227.211 -229.427)" fill="none" stroke="#000" stroke-linecap="round" stroke-linejoin="round" stroke-miterlimit="10" stroke-width="1.5"/>
          <path id="Trazado_813314" data-name="Trazado 813314" d="M256,229.427l2.446,7.94a.182.182,0,0,0,.344,0l1.577-7.923" transform="translate(-251.633 -229.427)" fill="none" stroke="#000" stroke-linecap="round" stroke-linejoin="round" stroke-miterlimit="10" stroke-width="1.5"/>
        </g>
        <g id="Grupo_1067434" data-name="Grupo 1067434" transform="translate(33.332)">
          <path id="Trazado_813315" data-name="Trazado 813315" d="M337.09,229.427l1.571,7.94a.182.182,0,0,0,.344,0l2.452-7.923" transform="translate(-337.09 -229.427)" fill="none" stroke="#000" stroke-linecap="round" stroke-linejoin="round" stroke-miterlimit="10" stroke-width="1.5"/>
          <path id="Trazado_813316" data-name="Trazado 813316" d="M365.878,229.427l2.446,7.94a.182.182,0,0,0,.344,0l1.577-7.923" transform="translate(-361.512 -229.427)" fill="none" stroke="#000" stroke-linecap="round" stroke-linejoin="round" stroke-miterlimit="10" stroke-width="1.5"/>
        </g>
      </g>
      <path id="Trazado_813317" data-name="Trazado 813317" d="M46.228,217.436H81.557a1.326,1.326,0,0,0,1.326-1.326v-14.14a1.326,1.326,0,0,0-1.326-1.326H8.826A1.326,1.326,0,0,0,7.5,201.969v14.14a1.326,1.326,0,0,0,1.326,1.326h33" transform="translate(0 -131.205)" fill="none" stroke="#000" stroke-linecap="round" stroke-linejoin="round" stroke-miterlimit="10" stroke-width="1.5"/>
    </g>
  </g>
</svg>
