<svg xmlns="http://www.w3.org/2000/svg" width="155.589" height="249.684" viewBox="0 0 155.589 249.684">
  <g id="Grupo_1067046" data-name="Grupo 1067046" transform="translate(-8.91)">
    <g id="Grupo_1067003" data-name="Grupo 1067003" transform="translate(45.575 57.434)">
      <path id="Trazado_812650" data-name="Trazado 812650" d="M281.056,132s1.526,2.957,1.288,3.482c-4.865,11.113,4.483,27.95,11.733,43.022,5.485,11.352,6.344,28.713-.525,42.258-3.959,7.822-17.17,12.973-25.851,11.924L190.2,223.339c-7.345-.906-8.347-5.867-9.968-13.069-2.1-9.253.238-22.226,10.493-40.923,2.814-5.1,6.057-22.322-3.911-41.448Z" transform="translate(-179.524 -127.9)" fill="#072e37"/>
    </g>
    <g id="Grupo_1067004" data-name="Grupo 1067004" transform="translate(36.95 115.716)">
      <path id="Trazado_812651" data-name="Trazado 812651" d="M195.794,250.1s-7.87-.572-18.983,17.123L155.75,297.542l21.061,8.975,30.859-44.21Z" transform="translate(-155.75 -250.096)" fill="#fff"/>
    </g>
    <g id="Grupo_1067005" data-name="Grupo 1067005" transform="translate(84.721 110.941)">
      <path id="Trazado_812652" data-name="Trazado 812652" d="M262.935,242.62s13.546-4.054,23.657-1.908l.954,5.151L261.6,247.152Z" transform="translate(-261.6 -240.086)" fill="#dee3e5"/>
    </g>
    <g id="Grupo_1067006" data-name="Grupo 1067006" transform="translate(71.843 191.983)">
      <path id="Trazado_812653" data-name="Trazado 812653" d="M234.6,410h37.536v57.385H234.6Z" transform="translate(-234.6 -410)" fill="#3e434f"/>
    </g>
    <g id="Grupo_1067007" data-name="Grupo 1067007" transform="translate(88.871 97.832)">
      <path id="Trazado_812654" data-name="Trazado 812654" d="M270.3,212.6h18.458v23.848H270.3Z" transform="translate(-270.3 -212.6)" fill="#f5b1a6"/>
    </g>
    <g id="Grupo_1067008" data-name="Grupo 1067008" transform="translate(73.513 112.617)">
      <path id="Trazado_812655" data-name="Trazado 812655" d="M253.41,244.983s7.441,10.779,18.458-1.383c0,0,6.248,1.192,12.115,2.766l-.382,76.5-45.5.763s0-51.8,3.529-75.741Z" transform="translate(-238.1 -243.6)" fill="#4cb9af"/>
    </g>
    <g id="Grupo_1067009" data-name="Grupo 1067009" transform="translate(98.362 111.568)">
      <path id="Trazado_812656" data-name="Trazado 812656" d="M301.6,241.4s-4.722,13.069-8.776,63.244c-.906,11.113-1.765,22.178-2.051,33.339l-.572,41.532h37.823s-15.6-67.383-13.212-97.622l5.1-35.819Z" transform="translate(-290.2 -241.4)" fill="#f6faf8"/>
    </g>
    <g id="Grupo_1067010" data-name="Grupo 1067010" transform="translate(57.201 113.476)">
      <path id="Trazado_812657" data-name="Trazado 812657" d="M232.756,245.4s-10.97,105.015-4.674,136.017H203.9s7.917-55.268,9.014-79.927c0,0,6.3-44.739,10.207-53.705Z" transform="translate(-203.9 -245.4)" fill="#fff"/>
    </g>
    <g id="Grupo_1067011" data-name="Grupo 1067011" transform="translate(122.952 115.765)">
      <path id="Trazado_812658" data-name="Trazado 812658" d="M363.24,272.76l3.959,38.347-20.8-.238-4.483-42.354v-.1a34.336,34.336,0,0,1,3.243-18.22C345.163,250.248,361.379,253.062,363.24,272.76Z" transform="translate(-341.755 -250.2)" fill="#f6faf8"/>
    </g>
    <g id="Grupo_1067012" data-name="Grupo 1067012" transform="translate(99.65 111.568)">
      <path id="Trazado_812659" data-name="Trazado 812659" d="M303.012,241.4l8.681,15.549L298.91,280.558l5.008,5.676L292.9,323.293S295.809,265.82,303.012,241.4Z" transform="translate(-292.9 -241.4)" fill="#dee3e5"/>
    </g>
    <g id="Grupo_1067013" data-name="Grupo 1067013" transform="translate(74.276 113.428)">
      <path id="Trazado_812660" data-name="Trazado 812660" d="M251.481,245.3,239.7,258.655l6.677,23.276-6.105,4.483,4.817,39.063s3-56.615,6.391-80.176Z" transform="translate(-239.7 -245.3)" fill="#dee3e5"/>
    </g>
    <g id="Grupo_1067014" data-name="Grupo 1067014" transform="translate(51.563)">
      <path id="Trazado_812661" data-name="Trazado 812661" d="M291.058,62.2c-2.432,27.33-20.128,40.78-47.171,38.347S189.8,80.036,192.233,52.754c2.432-27.33,26.328-47.5,53.371-45.072S293.49,34.916,291.058,62.2Z" transform="translate(-192.08 -7.483)" fill="#072e37"/>
    </g>
    <g id="Grupo_1067015" data-name="Grupo 1067015" transform="translate(130.79 58.569)">
      <path id="Trazado_812662" data-name="Trazado 812662" d="M378.895,136.3a9.533,9.533,0,0,1-5.342,12.353c-4.865,1.955-12.973.572-14.929-4.34s3.053-11.447,7.918-13.355A9.533,9.533,0,0,1,378.895,136.3Z" transform="translate(-358.19 -130.28)" fill="#ffc1ae"/>
    </g>
    <g id="Grupo_1067016" data-name="Grupo 1067016" transform="translate(49.459 55.392)">
      <path id="Trazado_812663" data-name="Trazado 812663" d="M188.161,130.145a9.488,9.488,0,0,0,6.057,12.019c5.008,1.669,12.973-.191,14.643-5.151,1.669-5.008-3.673-11.256-8.681-12.878A9.406,9.406,0,0,0,188.161,130.145Z" transform="translate(-187.669 -123.62)" fill="#f4ada4"/>
    </g>
    <g id="Grupo_1067017" data-name="Grupo 1067017" transform="translate(58.392 14.632)">
      <path id="Trazado_812664" data-name="Trazado 812664" d="M286.337,78.435c3.768,29.381-18.029,51.082-46.312,47.886C221.8,124.27,201.3,109.342,207.544,72.9c4.96-28.808,29.333-35.963,38.729-34.579C279.707,43.378,282.569,49.436,286.337,78.435Z" transform="translate(-206.398 -38.161)" fill="#ffc1ae"/>
    </g>
    <g id="Grupo_1067018" data-name="Grupo 1067018" transform="translate(75.905 52.372)">
      <ellipse id="Elipse_8967" data-name="Elipse 8967" cx="6.441" cy="4.675" rx="6.441" ry="4.675" transform="matrix(0.067, -0.998, 0.998, 0.067, 0, 12.852)" fill="#001b22"/>
    </g>
    <g id="Grupo_1067019" data-name="Grupo 1067019" transform="translate(77.427 55.727)">
      <ellipse id="Elipse_8968" data-name="Elipse 8968" cx="3.244" cy="2.385" rx="3.244" ry="2.385" transform="matrix(0.067, -0.998, 0.998, 0.067, 0, 6.474)" fill="#fff"/>
    </g>
    <g id="Grupo_1067020" data-name="Grupo 1067020" transform="translate(108.976 54.571)">
      <ellipse id="Elipse_8969" data-name="Elipse 8969" cx="6.441" cy="4.675" rx="6.441" ry="4.675" transform="matrix(0.067, -0.998, 0.998, 0.067, 0, 12.852)" fill="#001b22"/>
    </g>
    <g id="Grupo_1067021" data-name="Grupo 1067021" transform="translate(110.546 57.929)">
      <ellipse id="Elipse_8970" data-name="Elipse 8970" cx="3.244" cy="2.385" rx="3.244" ry="2.385" transform="matrix(0.067, -0.998, 0.998, 0.067, 0, 6.474)" fill="#fff"/>
    </g>
    <g id="Grupo_1067022" data-name="Grupo 1067022" transform="translate(74.144 39.638)">
      <path id="Trazado_812665" data-name="Trazado 812665" d="M240.414,93.694a1.016,1.016,0,0,1-.954-.715.954.954,0,0,1,.668-1.192,29.727,29.727,0,0,1,14.5-.572.983.983,0,1,1-.477,1.908,28.258,28.258,0,0,0-13.5.572Z" transform="translate(-239.423 -90.588)" fill="#001b22"/>
    </g>
    <g id="Grupo_1067023" data-name="Grupo 1067023" transform="translate(95.372 66.391)">
      <path id="Trazado_812666" data-name="Trazado 812666" d="M288.161,149.981a3.1,3.1,0,0,1-3.291,2.909c-1.717-.1-.572-1.431-.477-3.148s-.859-3.2.858-3.052A3.159,3.159,0,0,1,288.161,149.981Z" transform="translate(-283.932 -146.68)" fill="#f3a29e"/>
    </g>
    <g id="Grupo_1067024" data-name="Grupo 1067024" transform="translate(82.766 3.633)">
      <path id="Trazado_812667" data-name="Trazado 812667" d="M257.5,15.1s6.964,18.887,20.843,34.913c9.444,10.875,27.9,17.123,37.155,19.126,0,.048,9.11-53.181-58-54.039Z" transform="translate(-257.5 -15.1)" fill="#072e37"/>
    </g>
    <g id="Grupo_1067029" data-name="Grupo 1067029" transform="translate(58.203 43.747)">
      <g id="Grupo_1067025" data-name="Grupo 1067025" transform="translate(0)">
        <path id="Trazado_812668" data-name="Trazado 812668" d="M223.648,132.542c-.477,0-.954,0-1.431-.048a17.733,17.733,0,0,1-12.162-5.39,15.336,15.336,0,0,1-4.006-11.781,17.441,17.441,0,0,1,5.58-11.733,17.089,17.089,0,0,1,12.878-4.34,19.957,19.957,0,0,1,12.83,5.723,15.583,15.583,0,0,1,4.674,12.162C241.39,125.865,233.33,132.542,223.648,132.542Zm-.429-31.479a15.132,15.132,0,0,0-10.3,3.911,15.441,15.441,0,0,0-5.008,10.445,13.508,13.508,0,0,0,3.529,10.4,16.168,16.168,0,0,0,10.922,4.817,12.5,12.5,0,0,0,1.336.048c8.681,0,15.93-5.914,16.455-13.641A13.788,13.788,0,0,0,236,106.309a17.9,17.9,0,0,0-11.59-5.2C223.981,101.111,223.6,101.063,223.218,101.063Z" transform="translate(-206 -99.205)" fill="#ededed"/>
      </g>
      <g id="Grupo_1067026" data-name="Grupo 1067026" transform="translate(41.119 2.715)">
        <path id="Trazado_812669" data-name="Trazado 812669" d="M311.237,138.19c-.477,0-.954,0-1.479-.048a19.958,19.958,0,0,1-12.83-5.723,15.43,15.43,0,0,1,1.622-23.562,20.443,20.443,0,0,1,26.328,1.812,15.43,15.43,0,0,1-1.622,23.562A19.756,19.756,0,0,1,311.237,138.19Zm-.668-31.431a17.818,17.818,0,0,0-10.875,3.577,13.576,13.576,0,0,0-1.431,20.8,18.451,18.451,0,0,0,23.8,1.669,13.576,13.576,0,0,0,1.431-20.8,17.9,17.9,0,0,0-11.59-5.2A12.5,12.5,0,0,0,310.569,106.759Z" transform="translate(-292.212 -104.897)" fill="#ededed"/>
      </g>
      <g id="Grupo_1067027" data-name="Grupo 1067027" transform="translate(35.015 17.026)">
        <path id="Trazado_812670" data-name="Trazado 812670" d="M0,0H1.859V7.009H0Z" transform="matrix(0.035, -0.999, 0.999, 0.035, 0, 1.858)" fill="#ededed"/>
      </g>
      <g id="Grupo_1067028" data-name="Grupo 1067028" transform="translate(76.492 13.96)">
        <path id="Trazado_812671" data-name="Trazado 812671" d="M367.293,132.446a.873.873,0,0,1-.858-.62.939.939,0,0,1,.572-1.192l5.771-2.1a.935.935,0,0,1,.62,1.765l-5.771,2.1C367.531,132.4,367.436,132.446,367.293,132.446Z" transform="translate(-366.375 -128.475)" fill="#ededed"/>
      </g>
    </g>
    <g id="Grupo_1067030" data-name="Grupo 1067030" transform="translate(107.457 40.096)">
      <path id="Trazado_812672" data-name="Trazado 812672" d="M324.117,95.58a1.05,1.05,0,0,1-.382-.048,29.3,29.3,0,0,0-13.355-1.908.965.965,0,0,1-.286-1.908,30.438,30.438,0,0,1,14.356,2,.93.93,0,0,1,.525,1.288A.851.851,0,0,1,324.117,95.58Z" transform="translate(-309.269 -91.549)" fill="#001b22"/>
    </g>
    <g id="Grupo_1067031" data-name="Grupo 1067031" transform="translate(96.108 79.942)">
      <path id="Trazado_812673" data-name="Trazado 812673" d="M289.922,178.148c-2.242.382-4.245-.191-4.436-1.24-.191-1.1,1.86-.334,4.1-.715s3.863-1.765,4.054-.715C293.881,176.574,292.212,177.766,289.922,178.148Z" transform="translate(-285.474 -175.091)" fill="#fe6c70"/>
    </g>
    <g id="Grupo_1067032" data-name="Grupo 1067032" transform="translate(112.051 176.434)">
      <path id="Trazado_812674" data-name="Trazado 812674" d="M334.449,377.4,318.9,410.453l14.452,10.255,21.892-43.069Z" transform="translate(-318.9 -377.4)" fill="#f6faf8"/>
    </g>
    <g id="Grupo_1067033" data-name="Grupo 1067033" transform="translate(110.477 208.438)">
      <path id="Trazado_812675" data-name="Trazado 812675" d="M316.268,444.5l16.98,12.115-.572.811L315.6,445.359Z" transform="translate(-315.6 -444.5)" fill="#dee3e5"/>
    </g>
    <g id="Grupo_1067084" data-name="Grupo 1067084" transform="matrix(0.966, 0.259, -0.259, 0.966, 22.666, 77.795)">
      <g id="Grupo_1067002" data-name="Grupo 1067002" transform="translate(1.807 0)">
        <path id="Trazado_812649" data-name="Trazado 812649" d="M22.25,29.191A32.359,32.359,0,0,1,18.2,21.655c-1.335-3.72-1.431-8.2-5.008-10.493C9.9,9.064,9.134,5.1,8.228,2.625,6.844-1.143,4.889-.189,3.935,1.385,2.695,3.531,5.6,5.773,6.272,10.924c0,0-9.587,6.439-5.056,10.875a17,17,0,0,0,6.057,6.057,5.274,5.274,0,0,1,2.337,2.337l.715,1.431Z" transform="translate(0)" fill="#f6b7a9"/>
      </g>
      <g id="Grupo_1067034" data-name="Grupo 1067034" transform="translate(9.224 23.372)">
        <path id="Trazado_812676" data-name="Trazado 812676" d="M12.115,0,45.692,44.5c6.63,7.774,6.582,15.549-4.96,19.6a1.532,1.532,0,0,1-.668.048,16.439,16.439,0,0,1-14.881-7.345L0,8.919Z" fill="#fff"/>
      </g>
      <g id="Grupo_1067035" data-name="Grupo 1067035" transform="translate(0 10.924)">
        <path id="Trazado_812677" data-name="Trazado 812677" d="M8.27,0A12.791,12.791,0,0,0,.258,5.962,2.058,2.058,0,0,0,.114,7.631C.83,9.682,3.262,14.023,5.5,13.116a2.252,2.252,0,0,0,1.049-1.908s1.86.477,2.671-2a3.2,3.2,0,0,0,1.86-2.766A14.556,14.556,0,0,0,8.27,0Z" transform="translate(0 0)" fill="#ffc1ae"/>
      </g>
      <g id="Grupo_1067036" data-name="Grupo 1067036" transform="translate(9.3 9.857)">
        <path id="Trazado_812678" data-name="Trazado 812678" d="M10.465,10.033A28.563,28.563,0,0,0,9.606,3.26,2.657,2.657,0,0,0,8.08,1.591,17.614,17.614,0,0,0,3.31.113C1.784-.078-.219-.221.019,1.4c.1.811,1.145,2.862,4.579,3.386,0,0-4.245,3.959-1.335,7.059,0,0,3.482,3.053,6.534-.1A2.588,2.588,0,0,0,10.465,10.033Z" transform="translate(0 0)" fill="#ffc1ae"/>
      </g>
    </g>
    <g id="Grupo_1067045" data-name="Grupo 1067045" transform="translate(101.653 138.85)">
      <g id="Grupo_1067037" data-name="Grupo 1067037" transform="translate(0 3.577)">
        <path id="Trazado_812679" data-name="Trazado 812679" d="M297.1,306.1h19.746v12.353H297.1Z" transform="translate(-297.1 -306.1)" fill="#b5b5b6"/>
      </g>
      <g id="Grupo_1067038" data-name="Grupo 1067038" transform="translate(0.048 3.482)">
        <path id="Trazado_812680" data-name="Trazado 812680" d="M297.2,305.9h19.269v12.162H297.2Z" transform="translate(-297.2 -305.9)" fill="#f7f8f8"/>
      </g>
      <g id="Grupo_1067042" data-name="Grupo 1067042" transform="translate(1.669 6.153)">
        <g id="Grupo_1067039" data-name="Grupo 1067039" transform="translate(0 6.296)">
          <path id="Trazado_812681" data-name="Trazado 812681" d="M300.6,324.7h7.727v1H300.6Z" transform="translate(-300.6 -324.7)" fill="#dcdddd"/>
        </g>
        <g id="Grupo_1067040" data-name="Grupo 1067040" transform="translate(0 3.148)">
          <path id="Trazado_812682" data-name="Trazado 812682" d="M300.6,318.1h7.727v1H300.6Z" transform="translate(-300.6 -318.1)" fill="#dcdddd"/>
        </g>
        <g id="Grupo_1067041" data-name="Grupo 1067041" transform="translate(0)">
          <path id="Trazado_812683" data-name="Trazado 812683" d="M300.6,311.5h7.727v1H300.6Z" transform="translate(-300.6 -311.5)" fill="#dcdddd"/>
        </g>
      </g>
      <g id="Grupo_1067043" data-name="Grupo 1067043" transform="translate(8.299)">
        <path id="Trazado_812684" data-name="Trazado 812684" d="M314.5,298.6h2.671v4.531H314.5Z" transform="translate(-314.5 -298.6)" fill="#072e37"/>
      </g>
      <g id="Grupo_1067044" data-name="Grupo 1067044" transform="translate(10.779 6.01)">
        <path id="Trazado_812685" data-name="Trazado 812685" d="M319.7,311.2h6.82v7.631H319.7Z" transform="translate(-319.7 -311.2)" fill="#dcdddd"/>
      </g>
    </g>
  </g>
</svg>
