<svg xmlns="http://www.w3.org/2000/svg" xmlns:xlink="http://www.w3.org/1999/xlink" width="77" height="77" viewBox="0 0 77 77">
  <defs>
    <filter id="Elipse_7698" x="0" y="0" width="77" height="77" filterUnits="userSpaceOnUse">
      <feOffset dy="3" input="SourceAlpha"/>
      <feGaussianBlur stdDeviation="3" result="blur"/>
      <feFlood flood-opacity="0.161"/>
      <feComposite operator="in" in2="blur"/>
      <feComposite in="SourceGraphic"/>
    </filter>
  </defs>
  <g id="Grupo_1064680" data-name="Grupo 1064680" transform="translate(-348.325 -1901.579)">
    <g transform="matrix(1, 0, 0, 1, 348.33, 1901.58)" filter="url(#Elipse_7698)">
      <circle id="Elipse_7698-2" data-name="Elipse 7698" cx="29.5" cy="29.5" r="29.5" transform="translate(9 6)" fill="#ffa69d"/>
    </g>
    <g id="boobs_x2C__breast_x2C__baby_x2C__lactation_x2C__maternity_x2C__breastfeeding" transform="translate(357.493 1909.895)">
      <g id="Grupo_1064345" data-name="Grupo 1064345" transform="translate(1.15 1)">
        <g id="XMLID_357_" transform="translate(0 3.725)">
          <g id="Grupo_1064327" data-name="Grupo 1064327">
            <path id="Trazado_797522" data-name="Trazado 797522" d="M18.715,38.752A14.045,14.045,0,0,1,7.992,33.817a4.516,4.516,0,0,1-4.979-3.071,2.5,2.5,0,0,1,.974-2.623A16.69,16.69,0,0,1,2.1,13.356a15.9,15.9,0,0,1,8.419-8.974,15.684,15.684,0,0,1,12.147-.355C30.962,7.207,35.159,17.7,33.1,24.273a.944.944,0,0,1-1.8-.562c1.806-5.768-2.135-15.17-9.31-17.92a13.817,13.817,0,0,0-10.7.315,14.028,14.028,0,0,0-7.427,7.917A15.123,15.123,0,0,0,6.15,27.934a.945.945,0,0,1-.511,1.472c-.936.257-.827.74-.785.921A2.8,2.8,0,0,0,8.19,31.888a.945.945,0,0,1,.883.308c2.691,3.084,7.347,6.77,16.682,3.2a11.266,11.266,0,0,0,2.319-1.212.943.943,0,0,1,1.068,1.555,12.9,12.9,0,0,1-2.714,1.417,21.671,21.671,0,0,1-7.713,1.6Z" transform="translate(-1.15 -2.974)" fill="#12263f"/>
          </g>
        </g>
        <g id="XMLID_320_" transform="translate(12.479 26.949)">
          <g id="Grupo_1064328" data-name="Grupo 1064328">
            <path id="Trazado_797523" data-name="Trazado 797523" d="M9.434,18.017a4.254,4.254,0,0,1-.938-.106.944.944,0,1,1,.421-1.84,2.884,2.884,0,0,0,2.342-.608.943.943,0,1,1,1.121,1.517,4.949,4.949,0,0,1-2.946,1.036Z" transform="translate(-7.762 -15.279)" fill="#12263f"/>
          </g>
        </g>
        <g id="XMLID_316_" transform="translate(22.568 24.599)">
          <g id="Grupo_1064329" data-name="Grupo 1064329">
            <path id="Trazado_797524" data-name="Trazado 797524" d="M14.508,16.631a4.29,4.29,0,0,1-.579-.04.944.944,0,1,1,.247-1.872,2.7,2.7,0,0,0,1.936-.517.943.943,0,0,1,1.08,1.548,4.652,4.652,0,0,1-2.684.881Z" transform="translate(-13.108 -14.034)" fill="#12263f"/>
          </g>
        </g>
        <g id="XMLID_314_" transform="translate(9.703 4.151)">
          <g id="Grupo_1064330" data-name="Grupo 1064330">
            <path id="Trazado_797525" data-name="Trazado 797525" d="M10.594,14.39a4.322,4.322,0,0,1-4.262-3.659A3.644,3.644,0,0,1,9.38,6.586a.943.943,0,1,1,.283,1.865A1.753,1.753,0,0,0,8.2,10.446a2.434,2.434,0,0,0,2.763,2.031,3.263,3.263,0,0,0,2.733-3.722A4.315,4.315,0,0,0,8.776,5.139a.944.944,0,1,1-.285-1.867,6.2,6.2,0,0,1,7.068,5.2,5.149,5.149,0,0,1-4.314,5.871A4.488,4.488,0,0,1,10.594,14.39Z" transform="translate(-6.291 -3.2)" fill="#12263f"/>
          </g>
        </g>
        <g id="Grupo_1064332" data-name="Grupo 1064332" transform="translate(20.689 32.077)">
          <g id="Grupo_1064331" data-name="Grupo 1064331">
            <path id="Trazado_797526" data-name="Trazado 797526" d="M13.09,20.321h-.053a.944.944,0,0,1-.925-.963.885.885,0,0,1,.963-.925,1.393,1.393,0,0,0,.26-.036.884.884,0,0,0,.315-.172.943.943,0,0,1,1.234,1.427,2.7,2.7,0,0,1-1.01.553,2.814,2.814,0,0,1-.785.115Z" transform="translate(-12.112 -17.996)" fill="#12263f"/>
          </g>
        </g>
        <g id="Grupo_1064334" data-name="Grupo 1064334" transform="translate(29.915)">
          <g id="Grupo_1064333" data-name="Grupo 1064333">
            <path id="Trazado_797527" data-name="Trazado 797527" d="M17.943,31.2a.944.944,0,0,1-.574-1.693c.185-.142,18.5-14.355,18.5-27.56a.944.944,0,0,1,1.887,0C37.76,16.081,19.3,30.4,18.519,31a.954.954,0,0,1-.576.194Z" transform="translate(-17.001 -1)" fill="#12263f"/>
          </g>
        </g>
        <g id="Grupo_1064336" data-name="Grupo 1064336" transform="translate(48.787 47.183)">
          <g id="Grupo_1064335" data-name="Grupo 1064335">
            <path id="Trazado_797528" data-name="Trazado 797528" d="M27.944,35.437A.944.944,0,0,1,27,34.493V26.944a.944.944,0,1,1,1.887,0v7.549A.944.944,0,0,1,27.944,35.437Z" transform="translate(-27 -26)" fill="#12263f"/>
          </g>
        </g>
        <g id="Grupo_1064338" data-name="Grupo 1064338" transform="translate(28.027 28.31)">
          <g id="Grupo_1064337" data-name="Grupo 1064337">
            <path id="Trazado_797529" data-name="Trazado 797529" d="M18.925,19.775H17.887a1.887,1.887,0,1,1,0-3.775h.944a.944.944,0,0,1,0,1.887h.094a.944.944,0,0,1,0,1.887Z" transform="translate(-16 -16)" fill="#12263f"/>
          </g>
        </g>
        <g id="Grupo_1064340" data-name="Grupo 1064340" transform="translate(29.914 25.309)">
          <g id="Grupo_1064339" data-name="Grupo 1064339">
            <path id="Trazado_797530" data-name="Trazado 797530" d="M18.887,24.96h-.075a.946.946,0,0,1-.9-.661A19.691,19.691,0,0,1,17,18.354a.945.945,0,0,1,.364-.745c.015-.011,1.436-1.117,3.476-2.956a.941.941,0,0,1,1.153-.085A5.659,5.659,0,0,1,18.887,24.96Zm.006-6.155a17.881,17.881,0,0,0,.61,4.216,3.77,3.77,0,0,0,2.006-6.434C20.3,17.654,19.376,18.417,18.893,18.805Z" transform="translate(-17 -14.41)" fill="#12263f"/>
          </g>
        </g>
        <g id="Grupo_1064342" data-name="Grupo 1064342" transform="translate(9.005 39.741)">
          <g id="Grupo_1064341" data-name="Grupo 1064341">
            <path id="Trazado_797531" data-name="Trazado 797531" d="M18.421,35.006c-6.332,0-11.369-4.694-12.488-11.862A.944.944,0,1,1,7.8,22.853c1.057,6.758,5.828,10.858,11.852,10.2,3.841-.419,7.406-3.006,8.5-5.162a2.075,2.075,0,0,0,.162-2.01c-1.08-1.885-3.078-1.115-7.385,1.1-.668.345-1.355.7-2.05,1.032a.976.976,0,0,1-.393.094c-2.1.059-4.112-.864-6.177-2.676a.944.944,0,1,1,1.246-1.419,7.616,7.616,0,0,0,4.7,2.208c.615-.3,1.221-.611,1.816-.917,3.835-1.968,7.8-4,9.884-.355a3.867,3.867,0,0,1-.119,3.8c-1.54,3.023-5.924,5.737-9.978,6.181a13.69,13.69,0,0,1-1.434.077Z" transform="translate(-5.921 -22.057)" fill="#12263f"/>
          </g>
        </g>
        <g id="Grupo_1064344" data-name="Grupo 1064344" transform="translate(29.914 28.31)">
          <g id="Grupo_1064343" data-name="Grupo 1064343">
            <path id="Trazado_797532" data-name="Trazado 797532" d="M36.817,36.76A19.838,19.838,0,0,1,17,16.944a.944.944,0,1,1,1.887,0A17.95,17.95,0,0,0,36.817,34.873,12.17,12.17,0,0,0,42.1,33.682a.944.944,0,0,1,.812,1.7A14.053,14.053,0,0,1,36.817,36.76Z" transform="translate(-17 -16)" fill="#12263f"/>
          </g>
        </g>
      </g>
    </g>
  </g>
</svg>
